<svg width="711" height="145" viewBox="0 0 711 145" fill="none" xmlns="http://www.w3.org/2000/svg">
<path d="M75.6301 50.6268L50.5727 97.8102L45.5059 50.6268H14L26.0681 143.151H53.2442L78.3016 98.0867L84.566 143.151H111.65L163.054 50.6268H129.061L103.912 97.8102L98.845 50.6268H75.6301Z" fill="black"/>
<path d="M215.656 11H183.598L155.685 143.151H187.743L197.324 97.8102C198.614 92.1888 200.825 87.6732 204.049 84.2634C207.181 80.7615 210.958 79.1027 215.288 79.1027C218.512 79.1027 221.276 80.1164 223.487 82.236C225.698 84.2634 226.803 87.1202 226.803 90.6221C226.803 91.1751 226.619 92.3731 226.435 94.2162L216.025 143.243H248.084L259.599 88.5026C260.336 84.9085 260.704 81.4988 260.704 78.2733C260.704 69.3343 258.033 62.2383 252.782 56.8933C247.439 51.5483 240.622 48.8758 232.239 48.8758C227.172 48.8758 222.289 49.9817 217.591 52.2855C212.893 54.4973 209.853 56.3404 208.379 57.7227C206.905 59.105 205.799 60.2109 205.062 61.1325L215.656 11Z" fill="black"/>
<path d="M323.808 116.702C319.755 116.702 316.162 115.135 313.214 112.002C310.174 108.869 308.7 105.091 308.7 100.667C308.7 94.0319 310.819 88.5026 315.241 83.8948C319.571 79.3792 324.545 77.0753 330.073 77.0753C334.126 77.0753 337.719 78.7341 340.851 81.8674C343.891 85.0928 345.457 88.9633 345.457 93.4789C345.457 99.7455 343.246 105.183 339.009 109.79C334.771 114.398 329.704 116.702 323.808 116.702ZM352.274 63.1599L351.353 61.5932C350.708 60.6717 349.695 59.4737 348.313 58.0913C346.931 56.709 345.273 55.3267 343.431 53.9443C341.496 52.562 339.009 51.364 335.969 50.3503C332.836 49.3366 329.612 48.7836 326.296 48.7836C312.938 48.7836 301.054 54.313 290.644 65.1873C280.142 76.0616 274.983 89.7927 274.983 106.196C274.983 117.071 278.392 126.194 285.393 133.751C292.395 141.308 300.686 144.994 310.451 144.994C313.767 144.994 316.991 144.625 320.124 143.704C323.164 142.874 325.651 141.953 327.586 140.847C329.612 139.741 331.363 138.543 333.021 137.161C334.679 135.778 335.692 134.857 336.153 134.304C336.706 133.751 337.074 133.29 337.258 132.921L335.232 143.151H367.29L386.912 50.6268H354.854L352.274 63.1599Z" fill="black"/>
<path d="M423.762 40.3054C423.025 44.0837 421.366 47.0327 418.787 49.2444C416.207 51.4562 413.26 52.562 409.851 52.562H403.31L397.23 80.8537H411.417L405.337 109.145C402.85 120.757 404.047 129.696 408.93 135.778C413.72 141.953 421.458 144.994 432.053 144.994C438.962 145.086 445.042 144.164 450.385 142.229L456.004 114.859L454.531 115.228C453.425 115.596 452.043 115.965 450.201 116.241C448.358 116.61 446.7 116.702 445.134 116.702C438.87 116.702 436.382 113.569 437.764 107.302L443.476 80.8537H462.361L468.349 52.562H449.464L455.36 24.2704H427.078L423.762 40.3054Z" fill="black"/>
<path d="M515.239 143.151H551.075L578.988 11H543.153L515.239 143.151Z" fill="black"/>
<path d="M609.112 11L581.199 143.151H617.035L626.8 96.8887H677.744L684.561 64.8187H633.617L638.131 43.1622H704.183L711 11H609.112Z" fill="black"/>
<path d="M61.6301 39.6268L36.5727 86.8102L31.5059 39.6268H0L12.0681 132.151H39.2442L64.3016 87.0867L70.566 132.151H97.65L149.054 39.6268H115.061L89.9117 86.8102L84.845 39.6268H61.6301Z" fill="#8F6565"/>
<path d="M201.656 0H169.598L141.685 132.151H173.743L183.324 86.8102C184.614 81.1888 186.825 76.6732 190.049 73.2634C193.181 69.7615 196.958 68.1027 201.288 68.1027C204.512 68.1027 207.276 69.1164 209.487 71.236C211.698 73.2634 212.803 76.1202 212.803 79.6221C212.803 80.1751 212.619 81.3731 212.435 83.2162L202.025 132.243H234.084L245.599 77.5026C246.336 73.9085 246.704 70.4988 246.704 67.2733C246.704 58.3343 244.033 51.2383 238.782 45.8933C233.439 40.5483 226.622 37.8758 218.239 37.8758C213.172 37.8758 208.289 38.9817 203.591 41.2855C198.893 43.4973 195.853 45.3404 194.379 46.7227C192.905 48.105 191.799 49.2109 191.062 50.1325L201.656 0Z" fill="#8F6565"/>
<path d="M309.808 105.702C305.755 105.702 302.162 104.135 299.214 101.002C296.174 97.8689 294.7 94.0905 294.7 89.6671C294.7 83.0319 296.819 77.5026 301.241 72.8948C305.571 68.3792 310.545 66.0753 316.073 66.0753C320.126 66.0753 323.719 67.7341 326.851 70.8674C329.891 74.0928 331.457 77.9633 331.457 82.4789C331.457 88.7455 329.246 94.1827 325.009 98.7904C320.771 103.398 315.704 105.702 309.808 105.702ZM338.274 52.1599L337.353 50.5932C336.708 49.6717 335.695 48.4737 334.313 47.0913C332.931 45.709 331.273 44.3267 329.431 42.9443C327.496 41.562 325.009 40.364 321.969 39.3503C318.836 38.3366 315.612 37.7836 312.296 37.7836C298.938 37.7836 287.054 43.313 276.644 54.1873C266.142 65.0616 260.983 78.7927 260.983 95.1964C260.983 106.071 264.392 115.194 271.393 122.751C278.395 130.308 286.686 133.994 296.451 133.994C299.767 133.994 302.991 133.625 306.124 132.704C309.164 131.874 311.651 130.953 313.586 129.847C315.612 128.741 317.363 127.543 319.021 126.161C320.679 124.778 321.692 123.857 322.153 123.304C322.706 122.751 323.074 122.29 323.258 121.921L321.232 132.151H353.29L372.912 39.6268H340.854L338.274 52.1599Z" fill="#8F6565"/>
<path d="M409.762 29.3054C409.025 33.0837 407.366 36.0327 404.787 38.2444C402.207 40.4562 399.26 41.562 395.851 41.562H389.31L383.23 69.8537H397.417L391.337 98.1453C388.85 109.757 390.047 118.696 394.93 124.778C399.72 130.953 407.458 133.994 418.053 133.994C424.962 134.086 431.042 133.164 436.385 131.229L442.004 103.859L440.531 104.228C439.425 104.596 438.043 104.965 436.201 105.241C434.358 105.61 432.7 105.702 431.134 105.702C424.87 105.702 422.382 102.569 423.764 96.3022L429.476 69.8537H448.361L454.349 41.562H435.464L441.36 13.2704H413.078L409.762 29.3054Z" fill="#8F6565"/>
<path d="M501.239 132.151H537.075L564.988 0H529.153L501.239 132.151Z" fill="#8F6565"/>
<path d="M595.112 0L567.199 132.151H603.035L612.8 85.8887H663.744L670.561 53.8187H619.617L624.131 32.1622H690.183L697 0H595.112Z" fill="#8F6565"/>
</svg>
