<svg width="42" height="13" viewBox="0 0 42 13" fill="none" xmlns="http://www.w3.org/2000/svg">
<rect x="0.15" y="0.15" width="41.7" height="12.7" rx="1.85" fill="url(#paint0_linear)" stroke="#1D85F9" stroke-width="0.3"/>
<path d="M11.5938 6.21094C11.5938 5.26042 11.849 4.51693 12.3594 3.98047C12.8698 3.44141 13.5286 3.17188 14.3359 3.17188C14.8646 3.17188 15.3411 3.29818 15.7656 3.55078C16.1901 3.80339 16.513 4.15625 16.7344 4.60938C16.9583 5.0599 17.0703 5.57161 17.0703 6.14453C17.0703 6.72526 16.9531 7.24479 16.7188 7.70312C16.4844 8.16146 16.1523 8.50911 15.7227 8.74609C15.293 8.98047 14.8294 9.09766 14.332 9.09766C13.793 9.09766 13.3112 8.96745 12.8867 8.70703C12.4622 8.44661 12.1406 8.09115 11.9219 7.64062C11.7031 7.1901 11.5938 6.71354 11.5938 6.21094ZM12.375 6.22266C12.375 6.91276 12.5599 7.45703 12.9297 7.85547C13.3021 8.2513 13.7682 8.44922 14.3281 8.44922C14.8984 8.44922 15.3672 8.2487 15.7344 7.84766C16.1042 7.44661 16.2891 6.8776 16.2891 6.14062C16.2891 5.67448 16.2096 5.26823 16.0508 4.92188C15.8945 4.57292 15.6641 4.30339 15.3594 4.11328C15.0573 3.92057 14.7174 3.82422 14.3398 3.82422C13.8034 3.82422 13.3411 4.00911 12.9531 4.37891C12.5677 4.74609 12.375 5.36068 12.375 6.22266ZM17.9609 10.5898V4.85156H18.6016V5.39062C18.7526 5.17969 18.9232 5.02214 19.1133 4.91797C19.3034 4.8112 19.5339 4.75781 19.8047 4.75781C20.1589 4.75781 20.4714 4.84896 20.7422 5.03125C21.013 5.21354 21.2174 5.47135 21.3555 5.80469C21.4935 6.13542 21.5625 6.4987 21.5625 6.89453C21.5625 7.31901 21.4857 7.70182 21.332 8.04297C21.181 8.38151 20.9596 8.64193 20.668 8.82422C20.3789 9.00391 20.0742 9.09375 19.7539 9.09375C19.5195 9.09375 19.3086 9.04427 19.1211 8.94531C18.9362 8.84635 18.7839 8.72135 18.6641 8.57031V10.5898H17.9609ZM18.5977 6.94922C18.5977 7.48307 18.7057 7.8776 18.9219 8.13281C19.138 8.38802 19.3997 8.51562 19.707 8.51562C20.0195 8.51562 20.2865 8.38411 20.5078 8.12109C20.7318 7.85547 20.8438 7.44531 20.8438 6.89062C20.8438 6.36198 20.7344 5.96615 20.5156 5.70312C20.2995 5.4401 20.0404 5.30859 19.7383 5.30859C19.4388 5.30859 19.1732 5.44922 18.9414 5.73047C18.7122 6.00911 18.5977 6.41536 18.5977 6.94922ZM25.2539 7.66406L25.9805 7.75391C25.8659 8.17839 25.6536 8.50781 25.3438 8.74219C25.0339 8.97656 24.638 9.09375 24.1562 9.09375C23.5495 9.09375 23.0677 8.90755 22.7109 8.53516C22.3568 8.16016 22.1797 7.63542 22.1797 6.96094C22.1797 6.26302 22.3594 5.72135 22.7188 5.33594C23.0781 4.95052 23.5443 4.75781 24.1172 4.75781C24.6719 4.75781 25.125 4.94661 25.4766 5.32422C25.8281 5.70182 26.0039 6.23307 26.0039 6.91797C26.0039 6.95964 26.0026 7.02214 26 7.10547H22.9062C22.9323 7.5612 23.0612 7.91016 23.293 8.15234C23.5247 8.39453 23.8138 8.51562 24.1602 8.51562C24.418 8.51562 24.638 8.44792 24.8203 8.3125C25.0026 8.17708 25.1471 7.96094 25.2539 7.66406ZM22.9453 6.52734H25.2617C25.2305 6.17839 25.1419 5.91667 24.9961 5.74219C24.7721 5.47135 24.4818 5.33594 24.125 5.33594C23.8021 5.33594 23.5299 5.44401 23.3086 5.66016C23.0898 5.8763 22.9688 6.16536 22.9453 6.52734ZM26.8672 9V4.85156H27.5V5.44141C27.8047 4.98568 28.2448 4.75781 28.8203 4.75781C29.0703 4.75781 29.2995 4.80339 29.5078 4.89453C29.7188 4.98307 29.8763 5.10026 29.9805 5.24609C30.0846 5.39193 30.1576 5.5651 30.1992 5.76562C30.2253 5.89583 30.2383 6.1237 30.2383 6.44922V9H29.5352V6.47656C29.5352 6.1901 29.5078 5.97656 29.4531 5.83594C29.3984 5.69271 29.3008 5.57943 29.1602 5.49609C29.0221 5.41016 28.8594 5.36719 28.6719 5.36719C28.3724 5.36719 28.1133 5.46224 27.8945 5.65234C27.6784 5.84245 27.5703 6.20312 27.5703 6.73438V9H26.8672Z" fill="white"/>
<defs>
<linearGradient id="paint0_linear" x1="21" y1="0" x2="21" y2="13" gradientUnits="userSpaceOnUse">
<stop stop-color="#5BACF9"/>
<stop offset="1" stop-color="#0084FE"/>
</linearGradient>
</defs>
</svg>
