<svg width="1115" height="547" viewBox="0 0 1115 547" fill="none" xmlns="http://www.w3.org/2000/svg">
<path d="M149.4 100.8C148.7 111.9 148.35 121.8 148.35 130.5C148.35 135.1 148.5 138.7 148.8 141.3H145.35C142.05 128.2 137.8 118.75 132.6 112.95C127.4 107.15 121.8 104.25 115.8 104.25H115.65V190.05C115.65 194.25 116.05 197.3 116.85 199.2C117.75 201.1 119.3 202.4 121.5 203.1C123.8 203.7 127.4 204 132.3 204V207C118.2 206.7 107.25 206.55 99.45 206.55C92.35 206.55 82.05 206.7 68.55 207V204C73.45 204 77 203.7 79.2 203.1C81.5 202.4 83.05 201.1 83.85 199.2C84.75 197.3 85.2 194.25 85.2 190.05V104.25H85.05C78.95 104.25 73.3 107.15 68.1 112.95C63 118.65 58.8 128.1 55.5 141.3H52.05C52.35 138.7 52.5 135.1 52.5 130.5C52.5 121.8 52.15 111.9 51.45 100.8C60.95 101.1 77.3 101.25 100.5 101.25C123.6 101.25 139.9 101.1 149.4 100.8ZM288.033 103.8C284.833 104 282.483 104.4 280.983 105C279.583 105.6 278.633 106.75 278.133 108.45C277.633 110.15 277.383 112.9 277.383 116.7V191.1C277.383 194.9 277.633 197.65 278.133 199.35C278.733 201.05 279.733 202.2 281.133 202.8C282.533 203.4 284.833 203.8 288.033 204V207C282.633 206.7 274.233 206.55 262.833 206.55C251.333 206.55 242.483 206.7 236.283 207V204C239.483 203.8 241.783 203.4 243.183 202.8C244.683 202.2 245.683 201.05 246.183 199.35C246.683 197.65 246.933 194.9 246.933 191.1V155.1H213.183V191.1C213.183 194.9 213.433 197.65 213.933 199.35C214.533 201.05 215.533 202.2 216.933 202.8C218.333 203.4 220.633 203.8 223.833 204V207C218.033 206.7 209.683 206.55 198.783 206.55C186.683 206.55 177.783 206.7 172.083 207V204C175.283 203.8 177.583 203.4 178.983 202.8C180.483 202.2 181.483 201.05 181.983 199.35C182.483 197.65 182.733 194.9 182.733 191.1V116.7C182.733 112.9 182.433 110.15 181.833 108.45C181.333 106.75 180.383 105.6 178.983 105C177.583 104.4 175.283 104 172.083 103.8V100.8C177.783 101.1 186.683 101.25 198.783 101.25C209.583 101.25 217.933 101.1 223.833 100.8V103.8C220.633 104 218.283 104.4 216.783 105C215.383 105.6 214.433 106.75 213.933 108.45C213.433 110.15 213.183 112.9 213.183 116.7V152.1H246.933V116.7C246.933 112.9 246.633 110.15 246.033 108.45C245.533 106.75 244.583 105.6 243.183 105C241.783 104.4 239.483 104 236.283 103.8V100.8C242.483 101.1 251.333 101.25 262.833 101.25C274.233 101.25 282.633 101.1 288.033 100.8V103.8ZM397.248 181.8C397.248 192 397.598 200.4 398.298 207C391.498 206.7 380.048 206.55 363.948 206.55C340.548 206.55 323.048 206.7 311.448 207V204C314.648 203.8 316.948 203.4 318.348 202.8C319.848 202.2 320.848 201.05 321.348 199.35C321.848 197.65 322.098 194.9 322.098 191.1V116.7C322.098 112.9 321.798 110.15 321.198 108.45C320.698 106.75 319.748 105.6 318.348 105C316.948 104.4 314.648 104 311.448 103.8V100.8C323.048 101.1 340.548 101.25 363.948 101.25C378.648 101.25 389.098 101.1 395.298 100.8C394.598 110.2 394.248 118.6 394.248 126C394.248 130.6 394.398 134.2 394.698 136.8H391.248C389.448 125.2 386.098 116.9 381.198 111.9C376.298 106.8 370.448 104.25 363.648 104.25H361.698C358.998 104.25 356.998 104.5 355.698 105C354.498 105.4 353.648 106.25 353.148 107.55C352.748 108.75 352.548 110.8 352.548 113.7V152.1H354.048C359.248 152.1 363.698 150.05 367.398 145.95C371.098 141.85 373.448 137.3 374.448 132.3H377.898C377.598 136.5 377.448 141.2 377.448 146.4V153.6C377.448 158.7 377.748 165.8 378.348 174.9H374.898C373.998 169.2 371.648 164.5 367.848 160.8C364.148 157 359.548 155.1 354.048 155.1H352.548V194.1C352.548 197 352.748 199.1 353.148 200.4C353.648 201.6 354.498 202.45 355.698 202.95C356.998 203.35 358.998 203.55 361.698 203.55H366.648C372.448 203.55 377.948 200.75 383.148 195.15C388.348 189.45 392.048 180.4 394.248 168H397.698C397.398 171.6 397.248 176.2 397.248 181.8ZM513.505 98.7C519.205 98.7 523.805 99.25 527.305 100.35C530.905 101.35 534.405 102.8 537.805 104.7C538.905 105.3 539.855 105.8 540.655 106.2C541.555 106.6 542.305 106.8 542.905 106.8C543.805 106.8 544.505 106.3 545.005 105.3C545.505 104.2 545.905 102.5 546.205 100.2H549.655C549.155 107.4 548.905 119.6 548.905 136.8H545.455C545.055 131.1 543.755 125.65 541.555 120.45C539.355 115.25 536.355 111 532.555 107.7C528.755 104.4 524.355 102.75 519.355 102.75C514.755 102.75 511.055 104 508.255 106.5C505.455 108.9 504.055 112.3 504.055 116.7C504.055 120.1 504.805 123.05 506.305 125.55C507.805 128.05 510.005 130.5 512.905 132.9C515.805 135.2 520.555 138.65 527.155 143.25C527.755 143.55 528.305 143.9 528.805 144.3C529.405 144.7 529.955 145.1 530.455 145.5C535.955 149.3 540.355 152.7 543.655 155.7C546.955 158.6 549.605 162 551.605 165.9C553.705 169.8 554.755 174.3 554.755 179.4C554.755 185.9 552.905 191.4 549.205 195.9C545.605 200.3 540.705 203.6 534.505 205.8C528.305 208 521.455 209.1 513.955 209.1C507.855 209.1 502.755 208.6 498.655 207.6C494.655 206.6 490.905 205.25 487.405 203.55C485.205 202.15 483.505 201.45 482.305 201.45C481.405 201.45 480.705 202 480.205 203.1C479.705 204.1 479.305 205.75 479.005 208.05H475.555C475.955 201.25 476.155 186.75 476.155 164.55H479.605C480.305 176.45 482.805 186.1 487.105 193.5C491.405 200.9 498.005 204.6 506.905 204.6C512.405 204.6 516.755 203.3 519.955 200.7C523.255 198.1 524.905 194.5 524.905 189.9C524.905 184.2 523.105 179.35 519.505 175.35C516.005 171.25 510.505 166.7 503.005 161.7C497.005 157.7 492.205 154.2 488.605 151.2C485.005 148.2 482.055 144.75 479.755 140.85C477.455 136.85 476.305 132.25 476.305 127.05C476.305 120.75 478.005 115.5 481.405 111.3C484.805 107 489.305 103.85 494.905 101.85C500.605 99.75 506.805 98.7 513.505 98.7ZM676.597 100.8C675.897 111.9 675.547 121.8 675.547 130.5C675.547 135.1 675.697 138.7 675.997 141.3H672.547C669.247 128.2 664.997 118.75 659.797 112.95C654.597 107.15 648.997 104.25 642.997 104.25H642.847V190.05C642.847 194.25 643.247 197.3 644.047 199.2C644.947 201.1 646.497 202.4 648.697 203.1C650.997 203.7 654.597 204 659.497 204V207C645.397 206.7 634.447 206.55 626.647 206.55C619.547 206.55 609.247 206.7 595.747 207V204C600.647 204 604.197 203.7 606.397 203.1C608.697 202.4 610.247 201.1 611.047 199.2C611.947 197.3 612.397 194.25 612.397 190.05V104.25H612.247C606.147 104.25 600.497 107.15 595.297 112.95C590.197 118.65 585.997 128.1 582.697 141.3H579.247C579.547 138.7 579.697 135.1 579.697 130.5C579.697 121.8 579.347 111.9 578.647 100.8C588.147 101.1 604.497 101.25 627.697 101.25C650.797 101.25 667.097 101.1 676.597 100.8ZM757.18 98.7C768.48 98.7 778.38 100.85 786.88 105.15C795.38 109.45 801.98 115.7 806.68 123.9C811.38 132 813.73 141.7 813.73 153C813.73 164 811.33 173.75 806.53 182.25C801.73 190.75 795.03 197.35 786.43 202.05C777.83 206.75 768.03 209.1 757.03 209.1C745.73 209.1 735.83 206.95 727.33 202.65C718.83 198.35 712.23 192.15 707.53 184.05C702.83 175.85 700.48 166.1 700.48 154.8C700.48 143.8 702.88 134.05 707.68 125.55C712.48 117.05 719.18 110.45 727.78 105.75C736.38 101.05 746.18 98.7 757.18 98.7ZM756.58 101.4C751.68 101.4 747.33 103.65 743.53 108.15C739.83 112.55 736.98 118.75 734.98 126.75C732.98 134.75 731.98 143.9 731.98 154.2C731.98 164.6 733.13 173.75 735.43 181.65C737.73 189.55 740.83 195.65 744.73 199.95C748.63 204.25 752.93 206.4 757.63 206.4C762.53 206.4 766.83 204.2 770.53 199.8C774.33 195.3 777.23 189.05 779.23 181.05C781.23 173.05 782.23 163.9 782.23 153.6C782.23 143.2 781.08 134.05 778.78 126.15C776.48 118.25 773.38 112.15 769.48 107.85C765.58 103.55 761.28 101.4 756.58 101.4ZM944.88 201C941.88 204 938.58 206.1 934.98 207.3C931.38 208.5 927.18 209.1 922.38 209.1C915.48 209.1 910.13 207.9 906.33 205.5C902.53 203 900.18 198.8 899.28 192.9L897.03 177.9C896.03 170.9 894.63 165.6 892.83 162C891.13 158.4 888.53 156.6 885.03 156.6H878.28V191.1C878.28 194.9 878.53 197.65 879.03 199.35C879.63 201.05 880.63 202.2 882.03 202.8C883.43 203.4 885.73 203.8 888.93 204V207C883.13 206.7 874.78 206.55 863.88 206.55C851.78 206.55 842.88 206.7 837.18 207V204C840.38 203.8 842.68 203.4 844.08 202.8C845.58 202.2 846.58 201.05 847.08 199.35C847.58 197.65 847.83 194.9 847.83 191.1V116.7C847.83 112.9 847.53 110.15 846.93 108.45C846.43 106.75 845.48 105.6 844.08 105C842.68 104.4 840.38 104 837.18 103.8V100.8C842.88 101.1 851.48 101.25 862.98 101.25L880.23 101.1C882.23 101 884.53 100.95 887.13 100.95C902.33 100.95 913.63 103.1 921.03 107.4C928.53 111.7 932.28 118.25 932.28 127.05C932.28 134.55 929.48 140.95 923.88 146.25C918.28 151.55 908.88 154.8 895.68 156C905.88 156.7 913.58 158.65 918.78 161.85C923.98 164.95 927.18 169.55 928.38 175.65L931.53 191.25C932.23 194.95 933.08 197.5 934.08 198.9C935.08 200.3 936.48 201 938.28 201C940.08 201 941.63 200.35 942.93 199.05L944.88 201ZM886.38 103.8C884.08 103.8 882.33 104.15 881.13 104.85C880.03 105.55 879.28 106.8 878.88 108.6C878.48 110.4 878.28 113.1 878.28 116.7V153.6H882.33C889.43 153.6 894.28 151.45 896.88 147.15C899.48 142.75 900.78 136.6 900.78 128.7C900.78 120.5 899.63 114.3 897.33 110.1C895.13 105.9 891.48 103.8 886.38 103.8ZM1035.25 101.1C1039.95 101.1 1043.8 100.95 1046.8 100.65V103.65C1041.7 106.15 1036.4 112.8 1030.9 123.6L1016.95 151.2V191.1C1016.95 194.9 1017.2 197.65 1017.7 199.35C1018.3 201.05 1019.3 202.2 1020.7 202.8C1022.1 203.4 1024.4 203.8 1027.6 204V207C1021.8 206.7 1013.2 206.55 1001.8 206.55C989.898 206.55 981.248 206.7 975.848 207V204C979.048 203.8 981.348 203.4 982.748 202.8C984.248 202.2 985.248 201.05 985.748 199.35C986.248 197.65 986.498 194.9 986.498 191.1V163.5L958.748 112.2C957.148 109.3 955.598 107.2 954.098 105.9C952.598 104.5 951.248 103.8 950.048 103.8V100.65C956.248 101.25 963.148 101.55 970.748 101.55C979.348 101.55 990.348 101.25 1003.75 100.65V103.8C999.748 103.8 996.748 104 994.748 104.4C992.748 104.8 991.748 105.75 991.748 107.25C991.748 107.95 991.948 108.7 992.348 109.5L1013.8 150.6L1020.55 137.1C1025.25 127.7 1027.6 120.25 1027.6 114.75C1027.6 107.65 1023.6 103.95 1015.6 103.65V100.65C1023.1 100.95 1029.65 101.1 1035.25 101.1ZM110.1 298.7C121.4 298.7 131.3 300.85 139.8 305.15C148.3 309.45 154.9 315.7 159.6 323.9C164.3 332 166.65 341.7 166.65 353C166.65 364 164.25 373.75 159.45 382.25C154.65 390.75 147.95 397.35 139.35 402.05C130.75 406.75 120.95 409.1 109.95 409.1C98.65 409.1 88.75 406.95 80.25 402.65C71.75 398.35 65.15 392.15 60.45 384.05C55.75 375.85 53.4 366.1 53.4 354.8C53.4 343.8 55.8 334.05 60.6 325.55C65.4 317.05 72.1 310.45 80.7 305.75C89.3 301.05 99.1 298.7 110.1 298.7ZM109.5 301.4C104.6 301.4 100.25 303.65 96.45 308.15C92.75 312.55 89.9 318.75 87.9 326.75C85.9 334.75 84.9 343.9 84.9 354.2C84.9 364.6 86.05 373.75 88.35 381.65C90.65 389.55 93.75 395.65 97.65 399.95C101.55 404.25 105.85 406.4 110.55 406.4C115.45 406.4 119.75 404.2 123.45 399.8C127.25 395.3 130.15 389.05 132.15 381.05C134.15 373.05 135.15 363.9 135.15 353.6C135.15 343.2 134 334.05 131.7 326.15C129.4 318.25 126.3 312.15 122.4 307.85C118.5 303.55 114.2 301.4 109.5 301.4ZM273.95 300.8C273.25 310.2 272.9 318.6 272.9 326C272.9 330.6 273.05 334.2 273.35 336.8H269.9C267.5 325.2 263.8 316.9 258.8 311.9C253.9 306.8 248.4 304.25 242.3 304.25H240.35C237.65 304.25 235.65 304.5 234.35 305C233.15 305.4 232.3 306.25 231.8 307.55C231.4 308.75 231.2 310.8 231.2 313.7V352.1H232.7C237.9 352.1 242.35 350.05 246.05 345.95C249.75 341.85 252.1 337.3 253.1 332.3H256.55C256.25 336.5 256.1 341.2 256.1 346.4V353.6C256.1 358.7 256.4 365.8 257 374.9H253.55C252.65 369.2 250.3 364.5 246.5 360.8C242.8 357 238.2 355.1 232.7 355.1H231.2V389.6C231.2 393.8 231.6 396.85 232.4 398.75C233.3 400.65 234.85 401.95 237.05 402.65C239.35 403.25 242.95 403.55 247.85 403.55V407C234.35 406.7 224.05 406.55 216.95 406.55C212.25 406.55 205.7 406.65 197.3 406.85L190.1 407V404C193.3 403.8 195.6 403.4 197 402.8C198.5 402.2 199.5 401.05 200 399.35C200.5 397.65 200.75 394.9 200.75 391.1V316.7C200.75 312.9 200.45 310.15 199.85 308.45C199.35 306.75 198.4 305.6 197 305C195.6 304.4 193.3 304 190.1 303.8V300.8C201.7 301.1 219.2 301.25 242.6 301.25C257.3 301.25 267.75 301.1 273.95 300.8Z" fill="#8F6565"/>
<path d="M409.63 384.627L384.573 431.81L379.506 384.627H348L360.068 477.151H387.244L412.302 432.087L418.566 477.151H445.65L497.054 384.627H463.061L437.912 431.81L432.845 384.627H409.63Z" fill="black"/>
<path d="M549.656 345H517.598L489.685 477.151H521.743L531.324 431.81C532.614 426.189 534.825 421.673 538.049 418.263C541.181 414.762 544.958 413.103 549.288 413.103C552.512 413.103 555.276 414.116 557.487 416.236C559.698 418.263 560.803 421.12 560.803 424.622C560.803 425.175 560.619 426.373 560.435 428.216L550.025 477.243H582.084L593.599 422.503C594.336 418.909 594.704 415.499 594.704 412.273C594.704 403.334 592.033 396.238 586.782 390.893C581.439 385.548 574.622 382.876 566.239 382.876C561.172 382.876 556.289 383.982 551.591 386.286C546.893 388.497 543.853 390.34 542.379 391.723C540.905 393.105 539.799 394.211 539.062 395.132L549.656 345Z" fill="black"/>
<path d="M657.808 450.702C653.755 450.702 650.162 449.135 647.214 446.002C644.174 442.869 642.7 439.09 642.7 434.667C642.7 428.032 644.819 422.503 649.241 417.895C653.571 413.379 658.545 411.075 664.073 411.075C668.126 411.075 671.719 412.734 674.851 415.867C677.891 419.093 679.457 422.963 679.457 427.479C679.457 433.745 677.246 439.183 673.009 443.79C668.771 448.398 663.704 450.702 657.808 450.702ZM686.274 397.16L685.353 395.593C684.708 394.672 683.695 393.474 682.313 392.091C680.931 390.709 679.273 389.327 677.431 387.944C675.496 386.562 673.009 385.364 669.969 384.35C666.836 383.337 663.612 382.784 660.296 382.784C646.938 382.784 635.054 388.313 624.644 399.187C614.142 410.062 608.983 423.793 608.983 440.196C608.983 451.071 612.392 460.194 619.393 467.751C626.395 475.308 634.686 478.994 644.451 478.994C647.767 478.994 650.991 478.625 654.124 477.704C657.164 476.874 659.651 475.953 661.586 474.847C663.612 473.741 665.363 472.543 667.021 471.161C668.679 469.778 669.692 468.857 670.153 468.304C670.706 467.751 671.074 467.29 671.258 466.921L669.232 477.151H701.29L720.913 384.627H688.854L686.274 397.16Z" fill="black"/>
<path d="M757.762 374.305C757.025 378.084 755.366 381.033 752.787 383.244C750.207 385.456 747.26 386.562 743.851 386.562H737.31L731.23 414.854H745.417L739.337 443.145C736.85 454.757 738.047 463.696 742.93 469.778C747.72 475.953 755.458 478.994 766.053 478.994C772.962 479.086 779.042 478.164 784.385 476.229L790.004 448.859L788.531 449.228C787.425 449.596 786.043 449.965 784.201 450.241C782.358 450.61 780.7 450.702 779.134 450.702C772.87 450.702 770.382 447.569 771.764 441.302L777.476 414.854H796.361L802.349 386.562H783.464L789.36 358.27H761.078L757.762 374.305Z" fill="black"/>
<path d="M849.239 477.151H885.075L912.988 345H877.153L849.239 477.151Z" fill="black"/>
<path d="M943.112 345L915.199 477.151H951.035L960.8 430.889H1011.74L1018.56 398.819H967.617L972.131 377.162H1038.18L1045 345H943.112Z" fill="black"/>
<path d="M395.63 373.627L370.573 420.81L365.506 373.627H334L346.068 466.151H373.244L398.302 421.087L404.566 466.151H431.65L483.054 373.627H449.061L423.912 420.81L418.845 373.627H395.63Z" fill="#8F6565"/>
<path d="M535.656 334H503.598L475.685 466.151H507.743L517.324 420.81C518.614 415.189 520.825 410.673 524.049 407.263C527.181 403.762 530.958 402.103 535.288 402.103C538.512 402.103 541.276 403.116 543.487 405.236C545.698 407.263 546.803 410.12 546.803 413.622C546.803 414.175 546.619 415.373 546.435 417.216L536.025 466.243H568.084L579.599 411.503C580.336 407.909 580.704 404.499 580.704 401.273C580.704 392.334 578.033 385.238 572.782 379.893C567.439 374.548 560.622 371.876 552.239 371.876C547.172 371.876 542.289 372.982 537.591 375.286C532.893 377.497 529.853 379.34 528.379 380.723C526.905 382.105 525.799 383.211 525.062 384.132L535.656 334Z" fill="#8F6565"/>
<path d="M643.808 439.702C639.755 439.702 636.162 438.135 633.214 435.002C630.174 431.869 628.7 428.091 628.7 423.667C628.7 417.032 630.819 411.503 635.241 406.895C639.571 402.379 644.545 400.075 650.073 400.075C654.126 400.075 657.719 401.734 660.851 404.867C663.891 408.093 665.457 411.963 665.457 416.479C665.457 422.745 663.246 428.183 659.009 432.79C654.771 437.398 649.704 439.702 643.808 439.702ZM672.274 386.16L671.353 384.593C670.708 383.672 669.695 382.474 668.313 381.091C666.931 379.709 665.273 378.327 663.431 376.944C661.496 375.562 659.009 374.364 655.969 373.35C652.836 372.337 649.612 371.784 646.296 371.784C632.938 371.784 621.054 377.313 610.644 388.187C600.142 399.062 594.983 412.793 594.983 429.196C594.983 440.071 598.392 449.194 605.393 456.751C612.395 464.308 620.686 467.994 630.451 467.994C633.767 467.994 636.991 467.625 640.124 466.704C643.164 465.874 645.651 464.953 647.586 463.847C649.612 462.741 651.363 461.543 653.021 460.161C654.679 458.778 655.692 457.857 656.153 457.304C656.706 456.751 657.074 456.29 657.258 455.921L655.232 466.151H687.29L706.913 373.627H674.854L672.274 386.16Z" fill="#8F6565"/>
<path d="M743.762 363.305C743.025 367.084 741.366 370.033 738.787 372.244C736.207 374.456 733.26 375.562 729.851 375.562H723.31L717.23 403.854H731.417L725.337 432.145C722.85 443.757 724.047 452.696 728.93 458.778C733.72 464.953 741.458 467.994 752.053 467.994C758.962 468.086 765.042 467.164 770.385 465.229L776.004 437.859L774.531 438.228C773.425 438.596 772.043 438.965 770.201 439.241C768.358 439.61 766.7 439.702 765.134 439.702C758.87 439.702 756.382 436.569 757.764 430.302L763.476 403.854H782.361L788.349 375.562H769.464L775.36 347.27H747.078L743.762 363.305Z" fill="#8F6565"/>
<path d="M835.239 466.151H871.075L898.988 334H863.153L835.239 466.151Z" fill="#8F6565"/>
<path d="M929.112 334L901.199 466.151H937.035L946.8 419.889H997.744L1004.56 387.819H953.617L958.131 366.162H1024.18L1031 334H929.112Z" fill="#8F6565"/>
</svg>
