<svg width="779" height="75" viewBox="0 0 779 75" fill="none" xmlns="http://www.w3.org/2000/svg">
<path d="M37.9945 0.799994C41.9945 0.799994 45.3945 1.36666 48.1945 2.5C50.9945 3.63333 53.7278 5.23333 56.3945 7.3C57.0612 7.9 57.6945 8.2 58.2945 8.2C59.6278 8.2 60.4945 6.2 60.8945 2.2H63.1945C62.9278 6.93333 62.7945 15.2667 62.7945 27.2H60.4945C60.0278 21.8667 59.1612 17.6667 57.8945 14.6C56.6278 11.5333 54.4278 8.96666 51.2945 6.9C48.1612 4.9 45.0611 3.9 41.9945 3.9C35.0612 3.9 30.1945 7.23333 27.3945 13.9C24.5945 20.5667 23.1945 28.5333 23.1945 37.8C23.1945 47.0667 24.5945 55.0333 27.3945 61.7C30.1945 68.3667 35.0612 71.7 41.9945 71.7C45.0611 71.7 48.1612 70.7 51.2945 68.7C54.4278 66.7667 56.6278 64.1667 57.8945 60.9C59.1612 57.6333 60.0278 53 60.4945 47H62.7945C62.7945 59.4667 62.9278 68.1333 63.1945 73H60.8945C60.6945 70.8667 60.3945 69.3667 59.9945 68.5C59.6611 67.5667 59.1612 67.1 58.4945 67.1C57.9611 67.1 57.2612 67.3667 56.3945 67.9C53.3945 70.0333 50.5278 71.6667 47.7945 72.8C45.0612 73.8667 41.7612 74.4 37.8945 74.4C30.3612 74.4 23.7612 72.9667 18.0945 70.1C12.4278 67.2333 8.02782 63.1 4.89448 57.7C1.76115 52.2333 0.194483 45.7333 0.194483 38.2C0.194483 30.8667 1.79448 24.3667 4.99448 18.7C8.19448 13.0333 12.6611 8.63333 18.3945 5.5C24.1278 2.36666 30.6612 0.799994 37.9945 0.799994ZM124.674 0.799994C132.208 0.799994 138.808 2.23333 144.474 5.1C150.141 7.96666 154.541 12.1333 157.674 17.6C160.808 23 162.374 29.4667 162.374 37C162.374 44.3333 160.774 50.8333 157.574 56.5C154.374 62.1667 149.908 66.5667 144.174 69.7C138.441 72.8333 131.908 74.4 124.574 74.4C117.041 74.4 110.441 72.9667 104.774 70.1C99.1075 67.2333 94.7075 63.1 91.5742 57.7C88.4408 52.2333 86.8742 45.7333 86.8742 38.2C86.8742 30.8667 88.4742 24.3667 91.6742 18.7C94.8742 13.0333 99.3408 8.63333 105.074 5.5C110.808 2.36666 117.341 0.799994 124.674 0.799994ZM124.274 2.59999C121.008 2.59999 118.108 4.09999 115.574 7.1C113.108 10.0333 111.208 14.1667 109.874 19.5C108.541 24.8333 107.874 30.9333 107.874 37.8C107.874 44.7333 108.641 50.8333 110.174 56.1C111.708 61.3667 113.774 65.4333 116.374 68.3C118.974 71.1667 121.841 72.6 124.974 72.6C128.241 72.6 131.108 71.1333 133.574 68.2C136.108 65.2 138.041 61.0333 139.374 55.7C140.708 50.3667 141.374 44.2667 141.374 37.4C141.374 30.4667 140.608 24.3667 139.074 19.1C137.541 13.8333 135.474 9.76666 132.874 6.9C130.274 4.03333 127.408 2.59999 124.274 2.59999ZM251.008 4.2C248.941 4.66666 247.408 5.4 246.408 6.4C245.408 7.33333 244.741 8.8 244.408 10.8C244.074 12.8 243.908 15.8 243.908 19.8V73C242.574 72.8667 241.474 72.8 240.608 72.8C239.874 72.8 238.641 72.8667 236.908 73L192.608 24.6V53.4C192.608 58.3333 192.808 61.9 193.208 64.1C193.608 66.2333 194.474 67.8 195.808 68.8C197.208 69.8 199.508 70.5333 202.708 71V73C199.974 72.8 196.241 72.7 191.508 72.7C187.974 72.7 185.208 72.8 183.208 73V71C185.274 70.5333 186.808 69.8333 187.808 68.9C188.808 67.9 189.474 66.4 189.808 64.4C190.141 62.4 190.308 59.4 190.308 55.4V12.8C190.308 10.2667 190.108 8.43333 189.708 7.3C189.374 6.16666 188.741 5.4 187.808 5C186.874 4.6 185.341 4.33333 183.208 4.2V2.2C185.208 2.4 187.974 2.5 191.508 2.5C195.108 2.5 198.174 2.4 200.708 2.2L241.608 45.4V21.8C241.608 16.8667 241.408 13.3333 241.008 11.2C240.608 9 239.708 7.4 238.308 6.4C236.974 5.4 234.708 4.66666 231.508 4.2V2.2C234.241 2.4 237.974 2.5 242.708 2.5C246.241 2.5 249.008 2.4 251.008 2.2V4.2ZM336.05 2.2C335.583 9.6 335.35 16.2 335.35 22C335.35 25.0667 335.45 27.4667 335.65 29.2H333.35C331.15 20.4667 328.317 14.1667 324.85 10.3C321.383 6.43333 317.65 4.49999 313.65 4.49999H313.55V61.7C313.55 64.5 313.817 66.5333 314.35 67.8C314.95 69.0667 315.983 69.9333 317.45 70.4C318.983 70.8 321.383 71 324.65 71V73C315.25 72.8 307.95 72.7 302.75 72.7C298.017 72.7 291.15 72.8 282.15 73V71C285.417 71 287.783 70.8 289.25 70.4C290.783 69.9333 291.817 69.0667 292.35 67.8C292.95 66.5333 293.25 64.5 293.25 61.7V4.49999H293.15C289.083 4.49999 285.317 6.43333 281.85 10.3C278.45 14.1 275.65 20.4 273.45 29.2H271.15C271.35 27.4667 271.45 25.0667 271.45 22C271.45 16.2 271.217 9.6 270.75 2.2C277.083 2.4 287.983 2.5 303.45 2.5C318.85 2.5 329.717 2.4 336.05 2.2ZM410.829 64.6C411.696 66.7333 412.629 68.3333 413.629 69.4C414.696 70.4 415.729 70.9333 416.729 71V73C411.929 72.8 405.862 72.7 398.529 72.7C390.929 72.7 385.329 72.8 381.729 73V71C384.262 70.8667 386.062 70.5667 387.129 70.1C388.196 69.5667 388.729 68.6667 388.729 67.4C388.729 66.2 388.329 64.6 387.529 62.6L381.629 46.2H361.429L359.729 50.7C357.529 56.3667 356.429 60.7 356.429 63.7C356.429 66.4333 357.196 68.3 358.729 69.3C360.262 70.3 362.529 70.8667 365.529 71V73C360.529 72.8 356.162 72.7 352.429 72.7C349.296 72.7 346.729 72.8 344.729 73V71C346.396 70.7333 347.962 69.7 349.429 67.9C350.896 66.1 352.396 63.2333 353.929 59.3L376.129 2.2C378.262 2.33333 380.029 2.4 381.429 2.4C382.762 2.4 384.496 2.33333 386.629 2.2L410.829 64.6ZM380.929 44.2L371.829 19.2L362.229 44.2H380.929ZM471.491 0.799994C475.491 0.799994 478.891 1.36666 481.691 2.5C484.491 3.63333 487.224 5.23333 489.891 7.3C490.557 7.9 491.191 8.2 491.791 8.2C493.124 8.2 493.991 6.2 494.391 2.2H496.691C496.424 6.93333 496.291 15.2667 496.291 27.2H493.991C493.524 21.8667 492.657 17.6667 491.391 14.6C490.124 11.5333 487.924 8.96666 484.791 6.9C481.657 4.9 478.557 3.9 475.491 3.9C468.557 3.9 463.691 7.23333 460.891 13.9C458.091 20.5667 456.691 28.5333 456.691 37.8C456.691 47.0667 458.091 55.0333 460.891 61.7C463.691 68.3667 468.557 71.7 475.491 71.7C478.557 71.7 481.657 70.7 484.791 68.7C487.924 66.7667 490.124 64.1667 491.391 60.9C492.657 57.6333 493.524 53 493.991 47H496.291C496.291 59.4667 496.424 68.1333 496.691 73H494.391C494.191 70.8667 493.891 69.3667 493.491 68.5C493.157 67.5667 492.657 67.1 491.991 67.1C491.457 67.1 490.757 67.3667 489.891 67.9C486.891 70.0333 484.024 71.6667 481.291 72.8C478.557 73.8667 475.257 74.4 471.391 74.4C463.857 74.4 457.257 72.9667 451.591 70.1C445.924 67.2333 441.524 63.1 438.391 57.7C435.257 52.2333 433.691 45.7333 433.691 38.2C433.691 30.8667 435.291 24.3667 438.491 18.7C441.691 13.0333 446.157 8.63333 451.891 5.5C457.624 2.36666 464.157 0.799994 471.491 0.799994ZM584.37 2.2C583.904 9.6 583.67 16.2 583.67 22C583.67 25.0667 583.77 27.4667 583.97 29.2H581.67C579.47 20.4667 576.637 14.1667 573.17 10.3C569.704 6.43333 565.97 4.49999 561.97 4.49999H561.87V61.7C561.87 64.5 562.137 66.5333 562.67 67.8C563.27 69.0667 564.304 69.9333 565.77 70.4C567.304 70.8 569.704 71 572.97 71V73C563.57 72.8 556.27 72.7 551.07 72.7C546.337 72.7 539.47 72.8 530.47 73V71C533.737 71 536.104 70.8 537.57 70.4C539.104 69.9333 540.137 69.0667 540.67 67.8C541.27 66.5333 541.57 64.5 541.57 61.7V4.49999H541.47C537.404 4.49999 533.637 6.43333 530.17 10.3C526.77 14.1 523.97 20.4 521.77 29.2H519.47C519.67 27.4667 519.77 25.0667 519.77 22C519.77 16.2 519.537 9.6 519.07 2.2C525.404 2.4 536.304 2.5 551.77 2.5C567.17 2.5 578.037 2.4 584.37 2.2ZM704.714 4.2C702.647 4.66666 701.114 5.4 700.114 6.4C699.114 7.33333 698.447 8.8 698.114 10.8C697.781 12.8 697.614 15.8 697.614 19.8V43.9C697.614 53.5 696.247 60.5667 693.514 65.1C691.714 68.1 689.047 70.4 685.514 72C682.047 73.6 677.547 74.4 672.014 74.4C663.947 74.4 657.681 72.8 653.214 69.6C649.947 67.2667 647.747 64.1333 646.614 60.2C645.547 56.2667 645.014 50.9333 645.014 44.2V12.8C645.014 10.2667 644.847 8.43333 644.514 7.3C644.181 6.16666 643.514 5.4 642.514 5C641.581 4.6 640.047 4.33333 637.914 4.2V2.2C641.714 2.4 647.581 2.5 655.514 2.5C663.381 2.5 669.347 2.4 673.414 2.2V4.2C671.014 4.33333 669.247 4.6 668.114 5C667.047 5.4 666.314 6.16666 665.914 7.3C665.514 8.43333 665.314 10.2667 665.314 12.8V53.6C665.314 60 666.314 64.5 668.314 67.1C670.314 69.6333 673.481 70.9 677.814 70.9C684.147 70.9 688.647 68.6667 691.314 64.2C693.981 59.6667 695.314 53.2667 695.314 45V21.8C695.314 16.8667 695.114 13.3333 694.714 11.2C694.314 9 693.414 7.4 692.014 6.4C690.681 5.4 688.414 4.66666 685.214 4.2V2.2C687.947 2.4 691.681 2.5 696.414 2.5C699.947 2.5 702.714 2.4 704.714 2.2V4.2ZM751.15 0.799994C754.95 0.799994 758.017 1.16666 760.35 1.9C762.75 2.56666 765.083 3.53333 767.35 4.8C768.083 5.19999 768.717 5.53333 769.25 5.79999C769.85 6.06666 770.35 6.2 770.75 6.2C771.35 6.2 771.817 5.86666 772.15 5.2C772.483 4.46666 772.75 3.33333 772.95 1.8H775.25C774.917 6.6 774.75 14.7333 774.75 26.2H772.45C772.183 22.4 771.317 18.7667 769.85 15.3C768.383 11.8333 766.383 9 763.85 6.79999C761.317 4.59999 758.383 3.49999 755.05 3.49999C751.983 3.49999 749.517 4.33333 747.65 6C745.783 7.6 744.85 9.86666 744.85 12.8C744.85 15.0667 745.35 17.0333 746.35 18.7C747.35 20.3667 748.817 22 750.75 23.6C752.683 25.1333 755.85 27.4333 760.25 30.5C760.65 30.7 761.017 30.9333 761.35 31.2C761.75 31.4667 762.117 31.7333 762.45 32C766.117 34.5333 769.05 36.8 771.25 38.8C773.45 40.7333 775.217 43 776.55 45.6C777.95 48.2 778.65 51.2 778.65 54.6C778.65 58.9333 777.417 62.6 774.95 65.6C772.55 68.5333 769.283 70.7333 765.15 72.2C761.017 73.6667 756.45 74.4 751.45 74.4C747.383 74.4 743.983 74.0667 741.25 73.4C738.583 72.7333 736.083 71.8333 733.75 70.7C732.283 69.7667 731.15 69.3 730.35 69.3C729.75 69.3 729.283 69.6667 728.95 70.4C728.617 71.0667 728.35 72.1667 728.15 73.7H725.85C726.117 69.1667 726.25 59.5 726.25 44.7H728.55C729.017 52.6333 730.683 59.0667 733.55 64C736.417 68.9333 740.817 71.4 746.75 71.4C750.417 71.4 753.317 70.5333 755.45 68.8C757.65 67.0667 758.75 64.6667 758.75 61.6C758.75 57.8 757.55 54.5667 755.15 51.9C752.817 49.1667 749.15 46.1333 744.15 42.8C740.15 40.1333 736.95 37.8 734.55 35.8C732.15 33.8 730.183 31.5 728.65 28.9C727.117 26.2333 726.35 23.1667 726.35 19.7C726.35 15.5 727.483 12 729.75 9.2C732.017 6.33333 735.017 4.23333 738.75 2.9C742.55 1.49999 746.683 0.799994 751.15 0.799994Z" fill="#8F6565"/>
</svg>
