<svg width="938" height="157" viewBox="0 0 938 157" fill="none" xmlns="http://www.w3.org/2000/svg">
<path d="M159.636 0.849995C162.486 0.849995 164.786 1.125 166.536 1.675C168.336 2.175 170.086 2.9 171.786 3.85C172.336 4.15 172.811 4.4 173.211 4.6C173.661 4.8 174.036 4.9 174.336 4.9C174.786 4.9 175.136 4.65 175.386 4.15C175.636 3.6 175.836 2.75 175.986 1.6H177.711C177.461 5.2 177.336 11.3 177.336 19.9H175.611C175.411 17.05 174.761 14.325 173.661 11.725C172.561 9.125 171.061 7 169.161 5.35C167.261 3.7 165.061 2.875 162.561 2.875C160.261 2.875 158.411 3.5 157.011 4.75C155.611 5.95 154.911 7.65 154.911 9.85C154.911 11.55 155.286 13.025 156.036 14.275C156.786 15.525 157.886 16.75 159.336 17.95C160.786 19.1 163.161 20.825 166.461 23.125C166.761 23.275 167.036 23.45 167.286 23.65C167.586 23.85 167.861 24.05 168.111 24.25C170.861 26.15 173.061 27.85 174.711 29.35C176.361 30.8 177.686 32.5 178.686 34.45C179.736 36.4 180.261 38.65 180.261 41.2C180.261 44.45 179.336 47.2 177.486 49.45C175.686 51.65 173.236 53.3 170.136 54.4C167.036 55.5 163.611 56.05 159.861 56.05C156.811 56.05 154.261 55.8 152.211 55.3C150.211 54.8 148.336 54.125 146.586 53.275C145.486 52.575 144.636 52.225 144.036 52.225C143.586 52.225 143.236 52.5 142.986 53.05C142.736 53.55 142.536 54.375 142.386 55.525H140.661C140.861 52.125 140.961 44.875 140.961 33.775H142.686C143.036 39.725 144.286 44.55 146.436 48.25C148.586 51.95 151.886 53.8 156.336 53.8C159.086 53.8 161.261 53.15 162.861 51.85C164.511 50.55 165.336 48.75 165.336 46.45C165.336 43.6 164.436 41.175 162.636 39.175C160.886 37.125 158.136 34.85 154.386 32.35C151.386 30.35 148.986 28.6 147.186 27.1C145.386 25.6 143.911 23.875 142.761 21.925C141.611 19.925 141.036 17.625 141.036 15.025C141.036 11.875 141.886 9.25 143.586 7.15C145.286 5 147.536 3.425 150.336 2.425C153.186 1.375 156.286 0.849995 159.636 0.849995ZM225.957 3.4C224.357 3.5 223.182 3.7 222.432 4C221.732 4.3 221.257 4.875 221.007 5.725C220.757 6.575 220.632 7.95 220.632 9.85V47.05C220.632 48.95 220.757 50.325 221.007 51.175C221.307 52.025 221.807 52.6 222.507 52.9C223.207 53.2 224.357 53.4 225.957 53.5V55C223.057 54.85 218.882 54.775 213.432 54.775C207.382 54.775 202.932 54.85 200.082 55V53.5C201.682 53.4 202.832 53.2 203.532 52.9C204.282 52.6 204.782 52.025 205.032 51.175C205.282 50.325 205.407 48.95 205.407 47.05V9.85C205.407 7.95 205.257 6.575 204.957 5.725C204.707 4.875 204.232 4.3 203.532 4C202.832 3.7 201.682 3.5 200.082 3.4V1.9C202.932 2.05 207.382 2.125 213.432 2.125C218.832 2.125 223.007 2.05 225.957 1.9V3.4ZM274.299 0.849995C277.499 0.849995 280.249 1.275 282.549 2.125C284.849 2.975 286.949 4.175 288.849 5.725C289.399 6.175 289.899 6.4 290.349 6.4C290.849 6.4 291.249 6.05 291.549 5.35C291.849 4.6 292.074 3.45 292.224 1.9H293.949C293.749 5.45 293.649 11.7 293.649 20.65H291.924C291.574 16.7 290.924 13.575 289.974 11.275C289.024 8.975 287.374 7.025 285.024 5.425C283.974 4.725 282.749 4.175 281.349 3.775C279.999 3.375 278.649 3.175 277.299 3.175C273.699 3.175 270.774 4.45 268.524 7C266.324 9.5 264.749 12.675 263.799 16.525C262.899 20.375 262.449 24.4 262.449 28.6C262.449 37.3 263.499 43.8 265.599 48.1C267.749 52.4 270.724 54.55 274.524 54.55C276.074 54.55 277.299 54.25 278.199 53.65C279.249 52.9 279.774 51.65 279.774 49.9V42.4C279.774 39.9 279.574 38.075 279.174 36.925C278.774 35.725 278.049 34.925 276.999 34.525C275.999 34.075 274.399 33.8 272.199 33.7V32.2C275.599 32.35 280.374 32.425 286.524 32.425C291.674 32.425 295.524 32.35 298.074 32.2V33.7C297.174 33.8 296.499 34 296.049 34.3C295.649 34.6 295.374 35.175 295.224 36.025C295.074 36.875 294.999 38.25 294.999 40.15V55H293.499C293.449 53.95 293.224 52.975 292.824 52.075C292.424 51.175 291.874 50.725 291.174 50.725C290.124 50.725 288.424 51.3 286.074 52.45C281.074 54.85 276.849 56.05 273.399 56.05C264.099 56.05 257.074 53.7 252.324 49C247.574 44.3 245.199 37.6 245.199 28.9C245.199 23.4 246.424 18.525 248.874 14.275C251.374 10.025 254.824 6.725 259.224 4.375C263.624 2.025 268.649 0.849995 274.299 0.849995ZM367.288 3.4C365.738 3.75 364.588 4.3 363.838 5.05C363.088 5.75 362.588 6.85 362.338 8.35C362.088 9.85 361.963 12.1 361.963 15.1V55C360.963 54.9 360.138 54.85 359.488 54.85C358.938 54.85 358.013 54.9 356.713 55L323.488 18.7V40.3C323.488 44 323.638 46.675 323.938 48.325C324.238 49.925 324.888 51.1 325.888 51.85C326.938 52.6 328.663 53.15 331.063 53.5V55C329.013 54.85 326.213 54.775 322.663 54.775C320.013 54.775 317.938 54.85 316.438 55V53.5C317.988 53.15 319.138 52.625 319.888 51.925C320.638 51.175 321.138 50.05 321.388 48.55C321.638 47.05 321.763 44.8 321.763 41.8V9.85C321.763 7.95 321.613 6.575 321.313 5.725C321.063 4.875 320.588 4.3 319.888 4C319.188 3.7 318.038 3.5 316.438 3.4V1.9C317.938 2.05 320.013 2.125 322.663 2.125C325.363 2.125 327.663 2.05 329.563 1.9L360.238 34.3V16.6C360.238 12.9 360.088 10.25 359.788 8.65C359.488 7 358.813 5.8 357.763 5.05C356.763 4.3 355.063 3.75 352.663 3.4V1.9C354.713 2.05 357.513 2.125 361.063 2.125C363.713 2.125 365.788 2.05 367.288 1.9V3.4ZM466.894 3.4C465.344 3.75 464.194 4.3 463.444 5.05C462.694 5.75 462.194 6.85 461.944 8.35C461.694 9.85 461.569 12.1 461.569 15.1V33.175C461.569 40.375 460.544 45.675 458.494 49.075C457.144 51.325 455.144 53.05 452.494 54.25C449.894 55.45 446.519 56.05 442.369 56.05C436.319 56.05 431.619 54.85 428.269 52.45C425.819 50.7 424.169 48.35 423.319 45.4C422.519 42.45 422.119 38.45 422.119 33.4V9.85C422.119 7.95 421.994 6.575 421.744 5.725C421.494 4.875 420.994 4.3 420.244 4C419.544 3.7 418.394 3.5 416.794 3.4V1.9C419.644 2.05 424.044 2.125 429.994 2.125C435.894 2.125 440.369 2.05 443.419 1.9V3.4C441.619 3.5 440.294 3.7 439.444 4C438.644 4.3 438.094 4.875 437.794 5.725C437.494 6.575 437.344 7.95 437.344 9.85V40.45C437.344 45.25 438.094 48.625 439.594 50.575C441.094 52.475 443.469 53.425 446.719 53.425C451.469 53.425 454.844 51.75 456.844 48.4C458.844 45 459.844 40.2 459.844 34V16.6C459.844 12.9 459.694 10.25 459.394 8.65C459.094 7 458.419 5.8 457.369 5.05C456.369 4.3 454.669 3.75 452.269 3.4V1.9C454.319 2.05 457.119 2.125 460.669 2.125C463.319 2.125 465.394 2.05 466.894 1.9V3.4ZM505.471 33.55V46.3C505.471 48.4 505.671 49.925 506.071 50.875C506.521 51.825 507.296 52.475 508.396 52.825C509.546 53.125 511.346 53.275 513.796 53.275V55C507.046 54.85 501.896 54.775 498.346 54.775C495.996 54.775 492.721 54.825 488.521 54.925L484.921 55V53.5C486.521 53.4 487.671 53.2 488.371 52.9C489.121 52.6 489.621 52.025 489.871 51.175C490.121 50.325 490.246 48.95 490.246 47.05V9.85C490.246 7.95 490.096 6.575 489.796 5.725C489.546 4.875 489.071 4.3 488.371 4C487.671 3.7 486.521 3.5 484.921 3.4V1.9C487.771 2.05 492.071 2.125 497.821 2.125L506.446 2.05C507.446 2 508.596 1.975 509.896 1.975C517.296 1.975 522.896 3.325 526.696 6.025C530.546 8.675 532.471 12.25 532.471 16.75C532.471 19.5 531.721 22.15 530.221 24.7C528.721 27.2 526.171 29.3 522.571 31C518.971 32.7 514.196 33.55 508.246 33.55H505.471ZM509.521 3.4C508.371 3.4 507.496 3.575 506.896 3.925C506.346 4.275 505.971 4.9 505.771 5.8C505.571 6.7 505.471 8.05 505.471 9.85V32.05H507.496C510.996 32.05 513.396 30.75 514.696 28.15C516.046 25.55 516.721 22.025 516.721 17.575C516.721 12.725 516.171 9.15 515.071 6.85C513.971 4.55 512.121 3.4 509.521 3.4ZM622.178 1.9C621.828 6.6 621.653 10.8 621.653 14.5C621.653 16.8 621.728 18.6 621.878 19.9H620.153C618.953 14.1 617.103 9.95 614.603 7.45C612.153 4.9 609.403 3.625 606.353 3.625H605.378C604.028 3.625 603.028 3.75 602.378 4C601.778 4.2 601.353 4.625 601.103 5.275C600.903 5.875 600.803 6.9 600.803 8.35V27.55H601.553C604.153 27.55 606.378 26.525 608.228 24.475C610.078 22.425 611.253 20.15 611.753 17.65H613.478C613.328 19.75 613.253 22.1 613.253 24.7V28.3C613.253 30.85 613.403 34.4 613.703 38.95H611.978C611.528 36.1 610.353 33.75 608.453 31.9C606.603 30 604.303 29.05 601.553 29.05H600.803V46.3C600.803 48.4 601.003 49.925 601.403 50.875C601.853 51.825 602.628 52.475 603.728 52.825C604.878 53.125 606.678 53.275 609.128 53.275V55C602.378 54.85 597.228 54.775 593.678 54.775C591.328 54.775 588.053 54.825 583.853 54.925L580.253 55V53.5C581.853 53.4 583.003 53.2 583.703 52.9C584.453 52.6 584.953 52.025 585.203 51.175C585.453 50.325 585.578 48.95 585.578 47.05V9.85C585.578 7.95 585.428 6.575 585.128 5.725C584.878 4.875 584.403 4.3 583.703 4C583.003 3.7 581.853 3.5 580.253 3.4V1.9C586.053 2.05 594.803 2.125 606.503 2.125C613.853 2.125 619.078 2.05 622.178 1.9ZM669.467 0.849995C675.117 0.849995 680.067 1.925 684.317 4.075C688.567 6.225 691.867 9.35 694.217 13.45C696.567 17.5 697.742 22.35 697.742 28C697.742 33.5 696.542 38.375 694.142 42.625C691.742 46.875 688.392 50.175 684.092 52.525C679.792 54.875 674.892 56.05 669.392 56.05C663.742 56.05 658.792 54.975 654.542 52.825C650.292 50.675 646.992 47.575 644.642 43.525C642.292 39.425 641.117 34.55 641.117 28.9C641.117 23.4 642.317 18.525 644.717 14.275C647.117 10.025 650.467 6.725 654.767 4.375C659.067 2.025 663.967 0.849995 669.467 0.849995ZM669.167 2.2C666.717 2.2 664.542 3.325 662.642 5.575C660.792 7.775 659.367 10.875 658.367 14.875C657.367 18.875 656.867 23.45 656.867 28.6C656.867 33.8 657.442 38.375 658.592 42.325C659.742 46.275 661.292 49.325 663.242 51.475C665.192 53.625 667.342 54.7 669.692 54.7C672.142 54.7 674.292 53.6 676.142 51.4C678.042 49.15 679.492 46.025 680.492 42.025C681.492 38.025 681.992 33.45 681.992 28.3C681.992 23.1 681.417 18.525 680.267 14.575C679.117 10.625 677.567 7.575 675.617 5.425C673.667 3.275 671.517 2.2 669.167 2.2ZM770.817 52C769.317 53.5 767.667 54.55 765.867 55.15C764.067 55.75 761.967 56.05 759.567 56.05C756.117 56.05 753.442 55.45 751.542 54.25C749.642 53 748.467 50.9 748.017 47.95L746.892 40.45C746.392 36.95 745.692 34.3 744.792 32.5C743.942 30.7 742.642 29.8 740.892 29.8H737.517V47.05C737.517 48.95 737.642 50.325 737.892 51.175C738.192 52.025 738.692 52.6 739.392 52.9C740.092 53.2 741.242 53.4 742.842 53.5V55C739.942 54.85 735.767 54.775 730.317 54.775C724.267 54.775 719.817 54.85 716.967 55V53.5C718.567 53.4 719.717 53.2 720.417 52.9C721.167 52.6 721.667 52.025 721.917 51.175C722.167 50.325 722.292 48.95 722.292 47.05V9.85C722.292 7.95 722.142 6.575 721.842 5.725C721.592 4.875 721.117 4.3 720.417 4C719.717 3.7 718.567 3.5 716.967 3.4V1.9C719.817 2.05 724.117 2.125 729.867 2.125L738.492 2.05C739.492 2 740.642 1.975 741.942 1.975C749.542 1.975 755.192 3.05 758.892 5.2C762.642 7.35 764.517 10.625 764.517 15.025C764.517 18.775 763.117 21.975 760.317 24.625C757.517 27.275 752.817 28.9 746.217 29.5C751.317 29.85 755.167 30.825 757.767 32.425C760.367 33.975 761.967 36.275 762.567 39.325L764.142 47.125C764.492 48.975 764.917 50.25 765.417 50.95C765.917 51.65 766.617 52 767.517 52C768.417 52 769.192 51.675 769.842 51.025L770.817 52ZM741.567 3.4C740.417 3.4 739.542 3.575 738.942 3.925C738.392 4.275 738.017 4.9 737.817 5.8C737.617 6.7 737.517 8.05 737.517 9.85V28.3H739.542C743.092 28.3 745.517 27.225 746.817 25.075C748.117 22.875 748.767 19.8 748.767 15.85C748.767 11.75 748.192 8.65 747.042 6.55C745.942 4.45 744.117 3.4 741.567 3.4ZM28.5024 100.85C34.1524 100.85 39.1024 101.925 43.3524 104.075C47.6024 106.225 50.9024 109.35 53.2524 113.45C55.6024 117.5 56.7774 122.35 56.7774 128C56.7774 133.5 55.5774 138.375 53.1774 142.625C50.7774 146.875 47.4274 150.175 43.1274 152.525C38.8274 154.875 33.9274 156.05 28.4274 156.05C22.7774 156.05 17.8274 154.975 13.5774 152.825C9.32739 150.675 6.02739 147.575 3.67739 143.525C1.32739 139.425 0.152393 134.55 0.152393 128.9C0.152393 123.4 1.35239 118.525 3.75239 114.275C6.15239 110.025 9.50239 106.725 13.8024 104.375C18.1024 102.025 23.0024 100.85 28.5024 100.85ZM28.2024 102.2C25.7524 102.2 23.5774 103.325 21.6774 105.575C19.8274 107.775 18.4024 110.875 17.4024 114.875C16.4024 118.875 15.9024 123.45 15.9024 128.6C15.9024 133.8 16.4774 138.375 17.6274 142.325C18.7774 146.275 20.3274 149.325 22.2774 151.475C24.2274 153.625 26.3774 154.7 28.7274 154.7C31.1774 154.7 33.3274 153.6 35.1774 151.4C37.0774 149.15 38.5274 146.025 39.5274 142.025C40.5274 138.025 41.0274 133.45 41.0274 128.3C41.0274 123.1 40.4524 118.525 39.3024 114.575C38.1524 110.625 36.6024 107.575 34.6524 105.425C32.7024 103.275 30.5524 102.2 28.2024 102.2ZM125.197 103.4C123.647 103.75 122.497 104.3 121.747 105.05C120.997 105.75 120.497 106.85 120.247 108.35C119.997 109.85 119.872 112.1 119.872 115.1V133.175C119.872 140.375 118.847 145.675 116.797 149.075C115.447 151.325 113.447 153.05 110.797 154.25C108.197 155.45 104.822 156.05 100.672 156.05C94.6223 156.05 89.9223 154.85 86.5723 152.45C84.1223 150.7 82.4723 148.35 81.6223 145.4C80.8223 142.45 80.4223 138.45 80.4223 133.4V109.85C80.4223 107.95 80.2973 106.575 80.0473 105.725C79.7973 104.875 79.2973 104.3 78.5473 104C77.8473 103.7 76.6973 103.5 75.0973 103.4V101.9C77.9473 102.05 82.3473 102.125 88.2973 102.125C94.1973 102.125 98.6723 102.05 101.722 101.9V103.4C99.9223 103.5 98.5973 103.7 97.7473 104C96.9473 104.3 96.3973 104.875 96.0973 105.725C95.7973 106.575 95.6473 107.95 95.6473 109.85V140.45C95.6473 145.25 96.3973 148.625 97.8973 150.575C99.3973 152.475 101.772 153.425 105.022 153.425C109.772 153.425 113.147 151.75 115.147 148.4C117.147 145 118.147 140.2 118.147 134V116.6C118.147 112.9 117.997 110.25 117.697 108.65C117.397 107 116.722 105.8 115.672 105.05C114.672 104.3 112.972 103.75 110.572 103.4V101.9C112.622 102.05 115.422 102.125 118.972 102.125C121.622 102.125 123.697 102.05 125.197 101.9V103.4ZM197.074 152C195.574 153.5 193.924 154.55 192.124 155.15C190.324 155.75 188.224 156.05 185.824 156.05C182.374 156.05 179.699 155.45 177.799 154.25C175.899 153 174.724 150.9 174.274 147.95L173.149 140.45C172.649 136.95 171.949 134.3 171.049 132.5C170.199 130.7 168.899 129.8 167.149 129.8H163.774V147.05C163.774 148.95 163.899 150.325 164.149 151.175C164.449 152.025 164.949 152.6 165.649 152.9C166.349 153.2 167.499 153.4 169.099 153.5V155C166.199 154.85 162.024 154.775 156.574 154.775C150.524 154.775 146.074 154.85 143.224 155V153.5C144.824 153.4 145.974 153.2 146.674 152.9C147.424 152.6 147.924 152.025 148.174 151.175C148.424 150.325 148.549 148.95 148.549 147.05V109.85C148.549 107.95 148.399 106.575 148.099 105.725C147.849 104.875 147.374 104.3 146.674 104C145.974 103.7 144.824 103.5 143.224 103.4V101.9C146.074 102.05 150.374 102.125 156.124 102.125L164.749 102.05C165.749 102 166.899 101.975 168.199 101.975C175.799 101.975 181.449 103.05 185.149 105.2C188.899 107.35 190.774 110.625 190.774 115.025C190.774 118.775 189.374 121.975 186.574 124.625C183.774 127.275 179.074 128.9 172.474 129.5C177.574 129.85 181.424 130.825 184.024 132.425C186.624 133.975 188.224 136.275 188.824 139.325L190.399 147.125C190.749 148.975 191.174 150.25 191.674 150.95C192.174 151.65 192.874 152 193.774 152C194.674 152 195.449 151.675 196.099 151.025L197.074 152ZM167.824 103.4C166.674 103.4 165.799 103.575 165.199 103.925C164.649 104.275 164.274 104.9 164.074 105.8C163.874 106.7 163.774 108.05 163.774 109.85V128.3H165.799C169.349 128.3 171.774 127.225 173.074 125.075C174.374 122.875 175.024 119.8 175.024 115.85C175.024 111.75 174.449 108.65 173.299 106.55C172.199 104.45 170.374 103.4 167.824 103.4ZM311.419 103.4C309.819 103.5 308.644 103.7 307.894 104C307.194 104.3 306.719 104.875 306.469 105.725C306.219 106.575 306.094 107.95 306.094 109.85V147.05C306.094 148.95 306.219 150.325 306.469 151.175C306.769 152.025 307.269 152.6 307.969 152.9C308.669 153.2 309.819 153.4 311.419 153.5V155C308.369 154.85 303.944 154.775 298.144 154.775C292.094 154.775 287.644 154.85 284.794 155V153.5C286.594 153.4 287.894 153.2 288.694 152.9C289.544 152.6 290.119 152.025 290.419 151.175C290.719 150.325 290.869 148.95 290.869 147.05V108.725L272.794 154.925H271.594L250.444 106.775V140.3C250.444 144 250.594 146.675 250.894 148.325C251.194 149.925 251.844 151.1 252.844 151.85C253.894 152.6 255.619 153.15 258.019 153.5V155C255.969 154.85 253.169 154.775 249.619 154.775C246.969 154.775 244.894 154.85 243.394 155V153.5C244.944 153.15 246.094 152.625 246.844 151.925C247.594 151.175 248.094 150.05 248.344 148.55C248.594 147.05 248.719 144.8 248.719 141.8V109.85C248.719 107.95 248.569 106.575 248.269 105.725C248.019 104.875 247.544 104.3 246.844 104C246.144 103.7 244.994 103.5 243.394 103.4V101.9C244.894 102.05 246.969 102.125 249.619 102.125C255.619 102.125 260.794 102.05 265.144 101.9L279.319 133.775L291.619 102.125H298.144C303.944 102.125 308.369 102.05 311.419 101.9V103.4ZM376.507 148.7C377.157 150.3 377.857 151.5 378.607 152.3C379.407 153.05 380.182 153.45 380.932 153.5V155C377.332 154.85 372.782 154.775 367.282 154.775C361.582 154.775 357.382 154.85 354.682 155V153.5C356.582 153.4 357.932 153.175 358.732 152.825C359.532 152.425 359.932 151.75 359.932 150.8C359.932 149.9 359.632 148.7 359.032 147.2L354.607 134.9H339.457L338.182 138.275C336.532 142.525 335.707 145.775 335.707 148.025C335.707 150.075 336.282 151.475 337.432 152.225C338.582 152.975 340.282 153.4 342.532 153.5V155C338.782 154.85 335.507 154.775 332.707 154.775C330.357 154.775 328.432 154.85 326.932 155V153.5C328.182 153.3 329.357 152.525 330.457 151.175C331.557 149.825 332.682 147.675 333.832 144.725L350.482 101.9C352.082 102 353.407 102.05 354.457 102.05C355.457 102.05 356.757 102 358.357 101.9L376.507 148.7ZM354.082 133.4L347.257 114.65L340.057 133.4H354.082ZM421.946 103.4C420.346 103.5 419.171 103.7 418.421 104C417.721 104.3 417.246 104.875 416.996 105.725C416.746 106.575 416.621 107.95 416.621 109.85V147.05C416.621 148.95 416.746 150.325 416.996 151.175C417.296 152.025 417.796 152.6 418.496 152.9C419.196 153.2 420.346 153.4 421.946 153.5V155C419.046 154.85 414.871 154.775 409.421 154.775C403.371 154.775 398.921 154.85 396.071 155V153.5C397.671 153.4 398.821 153.2 399.521 152.9C400.271 152.6 400.771 152.025 401.021 151.175C401.271 150.325 401.396 148.95 401.396 147.05V109.85C401.396 107.95 401.246 106.575 400.946 105.725C400.696 104.875 400.221 104.3 399.521 104C398.821 103.7 397.671 103.5 396.071 103.4V101.9C398.921 102.05 403.371 102.125 409.421 102.125C414.821 102.125 418.996 102.05 421.946 101.9V103.4ZM467.798 103.4C465.998 103.5 464.673 103.7 463.823 104C463.023 104.3 462.473 104.875 462.173 105.725C461.873 106.575 461.723 107.95 461.723 109.85V148.55C461.723 149.95 461.823 150.975 462.023 151.625C462.223 152.275 462.573 152.725 463.073 152.975C463.573 153.175 464.398 153.275 465.548 153.275H468.023C469.773 153.275 471.673 152.4 473.723 150.65C475.773 148.9 477.623 146.6 479.273 143.75C480.923 140.85 482.023 137.85 482.573 134.75H484.298C484.148 136.55 484.073 138.85 484.073 141.65C484.073 147.05 484.248 151.5 484.598 155C481.198 154.85 475.473 154.775 467.423 154.775C455.723 154.775 446.973 154.85 441.173 155V153.5C442.773 153.4 443.923 153.2 444.623 152.9C445.373 152.6 445.873 152.025 446.123 151.175C446.373 150.325 446.498 148.95 446.498 147.05V109.85C446.498 107.95 446.348 106.575 446.048 105.725C445.798 104.875 445.323 104.3 444.623 104C443.923 103.7 442.773 103.5 441.173 103.4V101.9C444.023 102.05 448.473 102.125 454.523 102.125C460.273 102.125 464.698 102.05 467.798 101.9V103.4ZM528.997 103.4C527.397 103.5 526.222 103.7 525.472 104C524.772 104.3 524.297 104.875 524.047 105.725C523.797 106.575 523.672 107.95 523.672 109.85V147.05C523.672 148.95 523.797 150.325 524.047 151.175C524.347 152.025 524.847 152.6 525.547 152.9C526.247 153.2 527.397 153.4 528.997 153.5V155C526.097 154.85 521.922 154.775 516.472 154.775C510.422 154.775 505.972 154.85 503.122 155V153.5C504.722 153.4 505.872 153.2 506.572 152.9C507.322 152.6 507.822 152.025 508.072 151.175C508.322 150.325 508.447 148.95 508.447 147.05V109.85C508.447 107.95 508.297 106.575 507.997 105.725C507.747 104.875 507.272 104.3 506.572 104C505.872 103.7 504.722 103.5 503.122 103.4V101.9C505.972 102.05 510.422 102.125 516.472 102.125C521.872 102.125 526.047 102.05 528.997 101.9V103.4ZM599.224 103.4C597.674 103.75 596.524 104.3 595.774 105.05C595.024 105.75 594.524 106.85 594.274 108.35C594.024 109.85 593.899 112.1 593.899 115.1V155C592.899 154.9 592.074 154.85 591.424 154.85C590.874 154.85 589.949 154.9 588.649 155L555.424 118.7V140.3C555.424 144 555.574 146.675 555.874 148.325C556.174 149.925 556.824 151.1 557.824 151.85C558.874 152.6 560.599 153.15 562.999 153.5V155C560.949 154.85 558.149 154.775 554.599 154.775C551.949 154.775 549.874 154.85 548.374 155V153.5C549.924 153.15 551.074 152.625 551.824 151.925C552.574 151.175 553.074 150.05 553.324 148.55C553.574 147.05 553.699 144.8 553.699 141.8V109.85C553.699 107.95 553.549 106.575 553.249 105.725C552.999 104.875 552.524 104.3 551.824 104C551.124 103.7 549.974 103.5 548.374 103.4V101.9C549.874 102.05 551.949 102.125 554.599 102.125C557.299 102.125 559.599 102.05 561.499 101.9L592.174 134.3V116.6C592.174 112.9 592.024 110.25 591.724 108.65C591.424 107 590.749 105.8 589.699 105.05C588.699 104.3 586.999 103.75 584.599 103.4V101.9C586.649 102.05 589.449 102.125 592.999 102.125C595.649 102.125 597.724 102.05 599.224 101.9V103.4ZM647.343 100.85C650.543 100.85 653.293 101.275 655.593 102.125C657.893 102.975 659.993 104.175 661.893 105.725C662.443 106.175 662.943 106.4 663.393 106.4C663.893 106.4 664.293 106.05 664.593 105.35C664.893 104.6 665.118 103.45 665.268 101.9H666.993C666.793 105.45 666.693 111.7 666.693 120.65H664.968C664.618 116.7 663.968 113.575 663.018 111.275C662.068 108.975 660.418 107.025 658.068 105.425C657.018 104.725 655.793 104.175 654.393 103.775C653.043 103.375 651.693 103.175 650.343 103.175C646.743 103.175 643.818 104.45 641.568 107C639.368 109.5 637.793 112.675 636.843 116.525C635.943 120.375 635.493 124.4 635.493 128.6C635.493 137.3 636.543 143.8 638.643 148.1C640.793 152.4 643.768 154.55 647.568 154.55C649.118 154.55 650.343 154.25 651.243 153.65C652.293 152.9 652.818 151.65 652.818 149.9V142.4C652.818 139.9 652.618 138.075 652.218 136.925C651.818 135.725 651.093 134.925 650.043 134.525C649.043 134.075 647.443 133.8 645.243 133.7V132.2C648.643 132.35 653.418 132.425 659.568 132.425C664.718 132.425 668.568 132.35 671.118 132.2V133.7C670.218 133.8 669.543 134 669.093 134.3C668.693 134.6 668.418 135.175 668.268 136.025C668.118 136.875 668.043 138.25 668.043 140.15V155H666.543C666.493 153.95 666.268 152.975 665.868 152.075C665.468 151.175 664.918 150.725 664.218 150.725C663.168 150.725 661.468 151.3 659.118 152.45C654.118 154.85 649.893 156.05 646.443 156.05C637.143 156.05 630.118 153.7 625.368 149C620.618 144.3 618.243 137.6 618.243 128.9C618.243 123.4 619.468 118.525 621.918 114.275C624.418 110.025 627.868 106.725 632.268 104.375C636.668 102.025 641.693 100.85 647.343 100.85ZM747.657 103.4C745.857 103.5 744.532 103.7 743.682 104C742.882 104.3 742.332 104.875 742.032 105.725C741.732 106.575 741.582 107.95 741.582 109.85V148.55C741.582 149.95 741.682 150.975 741.882 151.625C742.082 152.275 742.432 152.725 742.932 152.975C743.432 153.175 744.257 153.275 745.407 153.275H747.882C749.632 153.275 751.532 152.4 753.582 150.65C755.632 148.9 757.482 146.6 759.132 143.75C760.782 140.85 761.882 137.85 762.432 134.75H764.157C764.007 136.55 763.932 138.85 763.932 141.65C763.932 147.05 764.107 151.5 764.457 155C761.057 154.85 755.332 154.775 747.282 154.775C735.582 154.775 726.832 154.85 721.032 155V153.5C722.632 153.4 723.782 153.2 724.482 152.9C725.232 152.6 725.732 152.025 725.982 151.175C726.232 150.325 726.357 148.95 726.357 147.05V109.85C726.357 107.95 726.207 106.575 725.907 105.725C725.657 104.875 725.182 104.3 724.482 104C723.782 103.7 722.632 103.5 721.032 103.4V101.9C723.882 102.05 728.332 102.125 734.382 102.125C740.132 102.125 744.557 102.05 747.657 101.9V103.4ZM808.855 103.4C807.255 103.5 806.08 103.7 805.33 104C804.63 104.3 804.155 104.875 803.905 105.725C803.655 106.575 803.53 107.95 803.53 109.85V147.05C803.53 148.95 803.655 150.325 803.905 151.175C804.205 152.025 804.705 152.6 805.405 152.9C806.105 153.2 807.255 153.4 808.855 153.5V155C805.955 154.85 801.78 154.775 796.33 154.775C790.28 154.775 785.83 154.85 782.98 155V153.5C784.58 153.4 785.73 153.2 786.43 152.9C787.18 152.6 787.68 152.025 787.93 151.175C788.18 150.325 788.305 148.95 788.305 147.05V109.85C788.305 107.95 788.155 106.575 787.855 105.725C787.605 104.875 787.13 104.3 786.43 104C785.73 103.7 784.58 103.5 782.98 103.4V101.9C785.83 102.05 790.28 102.125 796.33 102.125C801.73 102.125 805.905 102.05 808.855 101.9V103.4ZM848.633 100.85C851.483 100.85 853.783 101.125 855.533 101.675C857.333 102.175 859.083 102.9 860.783 103.85C861.333 104.15 861.808 104.4 862.208 104.6C862.658 104.8 863.033 104.9 863.333 104.9C863.783 104.9 864.133 104.65 864.383 104.15C864.633 103.6 864.833 102.75 864.983 101.6H866.708C866.458 105.2 866.333 111.3 866.333 119.9H864.608C864.408 117.05 863.758 114.325 862.658 111.725C861.558 109.125 860.058 107 858.158 105.35C856.258 103.7 854.058 102.875 851.558 102.875C849.258 102.875 847.408 103.5 846.008 104.75C844.608 105.95 843.908 107.65 843.908 109.85C843.908 111.55 844.283 113.025 845.033 114.275C845.783 115.525 846.883 116.75 848.333 117.95C849.783 119.1 852.158 120.825 855.458 123.125C855.758 123.275 856.033 123.45 856.283 123.65C856.583 123.85 856.858 124.05 857.108 124.25C859.858 126.15 862.058 127.85 863.708 129.35C865.358 130.8 866.683 132.5 867.683 134.45C868.733 136.4 869.258 138.65 869.258 141.2C869.258 144.45 868.333 147.2 866.483 149.45C864.683 151.65 862.233 153.3 859.133 154.4C856.033 155.5 852.608 156.05 848.858 156.05C845.808 156.05 843.258 155.8 841.208 155.3C839.208 154.8 837.333 154.125 835.583 153.275C834.483 152.575 833.633 152.225 833.033 152.225C832.583 152.225 832.233 152.5 831.983 153.05C831.733 153.55 831.533 154.375 831.383 155.525H829.658C829.858 152.125 829.958 144.875 829.958 133.775H831.683C832.033 139.725 833.283 144.55 835.433 148.25C837.583 151.95 840.883 153.8 845.333 153.8C848.083 153.8 850.258 153.15 851.858 151.85C853.508 150.55 854.333 148.75 854.333 146.45C854.333 143.6 853.433 141.175 851.633 139.175C849.883 137.125 847.133 134.85 843.383 132.35C840.383 130.35 837.983 128.6 836.183 127.1C834.383 125.6 832.908 123.875 831.758 121.925C830.608 119.925 830.033 117.625 830.033 115.025C830.033 111.875 830.883 109.25 832.583 107.15C834.283 105 836.533 103.425 839.333 102.425C842.183 101.375 845.283 100.85 848.633 100.85ZM937.679 101.9C937.329 107.45 937.154 112.4 937.154 116.75C937.154 119.05 937.229 120.85 937.379 122.15H935.654C934.004 115.6 931.879 110.875 929.279 107.975C926.679 105.075 923.879 103.625 920.879 103.625H920.804V146.525C920.804 148.625 921.004 150.15 921.404 151.1C921.854 152.05 922.629 152.7 923.729 153.05C924.879 153.35 926.679 153.5 929.129 153.5V155C922.079 154.85 916.604 154.775 912.704 154.775C909.154 154.775 904.004 154.85 897.254 155V153.5C899.704 153.5 901.479 153.35 902.579 153.05C903.729 152.7 904.504 152.05 904.904 151.1C905.354 150.15 905.579 148.625 905.579 146.525V103.625H905.504C902.454 103.625 899.629 105.075 897.029 107.975C894.479 110.825 892.379 115.55 890.729 122.15H889.004C889.154 120.85 889.229 119.05 889.229 116.75C889.229 112.4 889.054 107.45 888.704 101.9C893.454 102.05 901.629 102.125 913.229 102.125C924.779 102.125 932.929 102.05 937.679 101.9Z" fill="#8F6565"/>
</svg>
