<svg width="35" height="35" viewBox="0 0 35 35" fill="none" xmlns="http://www.w3.org/2000/svg">
<path fill-rule="evenodd" clip-rule="evenodd" d="M35 34.9996H28V22.7513C28 19.3913 26.5177 17.5171 23.8595 17.5171C20.9667 17.5171 19.25 19.4701 19.25 22.7513V34.9996H12.25V12.2496H19.25V14.8081C19.25 14.8081 21.4463 10.9546 26.3953 10.9546C31.346 10.9546 35 13.9751 35 20.2261C35 26.4753 35 34.9996 35 34.9996ZM4.2735 8.61175C1.91275 8.61175 0 6.68325 0 4.305C0 1.9285 1.91275 0 4.2735 0C6.6325 0 8.54525 1.9285 8.54525 4.305C8.547 6.68325 6.6325 8.61175 4.2735 8.61175ZM0 35H8.75V12.25H0V35Z" fill="#8F6565"/>
</svg>
