<svg width="922" height="75" viewBox="0 0 922 75" fill="none" xmlns="http://www.w3.org/2000/svg">
<path d="M26.0905 0.799994C29.8905 0.799994 32.9572 1.16666 35.2905 1.9C37.6905 2.56666 40.0238 3.53333 42.2905 4.8C43.0238 5.19999 43.6572 5.53333 44.1905 5.79999C44.7905 6.06666 45.2905 6.2 45.6905 6.2C46.2905 6.2 46.7572 5.86666 47.0905 5.2C47.4238 4.46666 47.6905 3.33333 47.8905 1.8H50.1905C49.8572 6.6 49.6905 14.7333 49.6905 26.2H47.3905C47.1238 22.4 46.2572 18.7667 44.7905 15.3C43.3238 11.8333 41.3238 9 38.7905 6.79999C36.2572 4.59999 33.3238 3.49999 29.9905 3.49999C26.9238 3.49999 24.4572 4.33333 22.5905 6C20.7238 7.6 19.7905 9.86666 19.7905 12.8C19.7905 15.0667 20.2905 17.0333 21.2905 18.7C22.2905 20.3667 23.7572 22 25.6905 23.6C27.6238 25.1333 30.7905 27.4333 35.1905 30.5C35.5905 30.7 35.9572 30.9333 36.2905 31.2C36.6905 31.4667 37.0572 31.7333 37.3905 32C41.0572 34.5333 43.9905 36.8 46.1905 38.8C48.3905 40.7333 50.1572 43 51.4905 45.6C52.8905 48.2 53.5905 51.2 53.5905 54.6C53.5905 58.9333 52.3572 62.6 49.8905 65.6C47.4905 68.5333 44.2238 70.7333 40.0905 72.2C35.9572 73.6667 31.3905 74.4 26.3905 74.4C22.3238 74.4 18.9238 74.0667 16.1905 73.4C13.5238 72.7333 11.0238 71.8333 8.6905 70.7C7.22384 69.7667 6.0905 69.3 5.2905 69.3C4.6905 69.3 4.22384 69.6667 3.8905 70.4C3.55717 71.0667 3.2905 72.1667 3.0905 73.7H0.790503C1.05717 69.1667 1.1905 59.5 1.1905 44.7H3.4905C3.95717 52.6333 5.62384 59.0667 8.4905 64C11.3572 68.9333 15.7572 71.4 21.6905 71.4C25.3572 71.4 28.2572 70.5333 30.3905 68.8C32.5905 67.0667 33.6905 64.6667 33.6905 61.6C33.6905 57.8 32.4905 54.5667 30.0905 51.9C27.7572 49.1667 24.0905 46.1333 19.0905 42.8C15.0905 40.1333 11.8905 37.8 9.4905 35.8C7.0905 33.8 5.12384 31.5 3.5905 28.9C2.05717 26.2333 1.2905 23.1667 1.2905 19.7C1.2905 15.5 2.42384 12 4.6905 9.2C6.95717 6.33333 9.95717 4.23333 13.6905 2.9C17.4905 1.49999 21.6238 0.799994 26.0905 0.799994ZM130.319 4.2C128.252 4.66666 126.719 5.4 125.719 6.4C124.719 7.33333 124.052 8.8 123.719 10.8C123.385 12.8 123.219 15.8 123.219 19.8V43.9C123.219 53.5 121.852 60.5667 119.119 65.1C117.319 68.1 114.652 70.4 111.119 72C107.652 73.6 103.152 74.4 97.6186 74.4C89.552 74.4 83.2853 72.8 78.8186 69.6C75.552 67.2667 73.352 64.1333 72.2186 60.2C71.152 56.2667 70.6186 50.9333 70.6186 44.2V12.8C70.6186 10.2667 70.452 8.43333 70.1186 7.3C69.7853 6.16666 69.1186 5.4 68.1186 5C67.1853 4.6 65.652 4.33333 63.5186 4.2V2.2C67.3186 2.4 73.1853 2.5 81.1186 2.5C88.9853 2.5 94.952 2.4 99.0186 2.2V4.2C96.6186 4.33333 94.852 4.6 93.7186 5C92.652 5.4 91.9186 6.16666 91.5186 7.3C91.1186 8.43333 90.9186 10.2667 90.9186 12.8V53.6C90.9186 60 91.9186 64.5 93.9186 67.1C95.9186 69.6333 99.0853 70.9 103.419 70.9C109.752 70.9 114.252 68.6667 116.919 64.2C119.585 59.6667 120.919 53.2667 120.919 45V21.8C120.919 16.8667 120.719 13.3333 120.319 11.2C119.919 9 119.019 7.4 117.619 6.4C116.285 5.4 114.019 4.66666 110.819 4.2V2.2C113.552 2.4 117.285 2.5 122.019 2.5C125.552 2.5 128.319 2.4 130.319 2.2V4.2ZM176.655 35.9C183.188 36.2333 188.555 37.2667 192.755 39C197.021 40.7333 200.121 42.9 202.055 45.5C203.988 48.0333 204.955 50.7333 204.955 53.6C204.955 60.1333 202.355 65 197.155 68.2C191.955 71.4 184.555 73 174.955 73C173.021 73 171.388 72.9667 170.055 72.9C165.521 72.7667 161.088 72.7 156.755 72.7C148.955 72.7 143.155 72.8 139.355 73V71C141.488 70.8667 143.021 70.6 143.955 70.2C144.955 69.8 145.621 69.0333 145.955 67.9C146.288 66.7667 146.455 64.9333 146.455 62.4V12.8C146.455 10.2667 146.255 8.43333 145.855 7.3C145.521 6.16666 144.888 5.4 143.955 5C143.021 4.6 141.488 4.33333 139.355 4.2V2.2C143.155 2.4 148.888 2.5 156.555 2.5L168.055 2.4C169.388 2.33333 170.921 2.3 172.655 2.3C181.455 2.3 188.155 3.73333 192.755 6.6C197.421 9.4 199.755 13.2 199.755 18C199.755 20.4667 198.888 22.9667 197.155 25.5C195.421 27.9667 192.821 30.1333 189.355 32C185.888 33.8667 181.655 35.1 176.655 35.7V35.9ZM172.155 4.2C170.621 4.2 169.455 4.43333 168.655 4.89999C167.921 5.36666 167.421 6.2 167.155 7.4C166.888 8.6 166.755 10.4 166.755 12.8V35.4H169.455C173.055 35.4 175.555 33.9333 176.955 31C178.421 28 179.155 24.0333 179.155 19.1C179.155 14.0333 178.588 10.3 177.455 7.9C176.388 5.43333 174.621 4.2 172.155 4.2ZM173.255 70.7C180.388 70.7 183.955 64.8667 183.955 53.2C183.955 47.9333 182.688 43.9333 180.155 41.2C177.621 38.4667 173.621 37.1 168.155 37.1H166.755V62.4C166.755 64.8 166.921 66.5667 167.255 67.7C167.588 68.8333 168.188 69.6333 169.055 70.1C169.988 70.5 171.388 70.7 173.255 70.7ZM305.665 4.2C303.531 4.33333 301.965 4.6 300.965 5C300.031 5.4 299.398 6.16666 299.065 7.3C298.731 8.43333 298.565 10.2667 298.565 12.8V62.4C298.565 64.9333 298.731 66.7667 299.065 67.9C299.465 69.0333 300.131 69.8 301.065 70.2C301.998 70.6 303.531 70.8667 305.665 71V73C301.598 72.8 295.698 72.7 287.965 72.7C279.898 72.7 273.965 72.8 270.165 73V71C272.565 70.8667 274.298 70.6 275.365 70.2C276.498 69.8 277.265 69.0333 277.665 67.9C278.065 66.7667 278.265 64.9333 278.265 62.4V11.3L254.165 72.9H252.565L224.365 8.7V53.4C224.365 58.3333 224.565 61.9 224.965 64.1C225.365 66.2333 226.231 67.8 227.565 68.8C228.965 69.8 231.265 70.5333 234.465 71V73C231.731 72.8 227.998 72.7 223.265 72.7C219.731 72.7 216.965 72.8 214.965 73V71C217.031 70.5333 218.565 69.8333 219.565 68.9C220.565 67.9 221.231 66.4 221.565 64.4C221.898 62.4 222.065 59.4 222.065 55.4V12.8C222.065 10.2667 221.865 8.43333 221.465 7.3C221.131 6.16666 220.498 5.4 219.565 5C218.631 4.6 217.098 4.33333 214.965 4.2V2.2C216.965 2.4 219.731 2.5 223.265 2.5C231.265 2.5 238.165 2.4 243.965 2.2L262.865 44.7L279.265 2.5H287.965C295.698 2.5 301.598 2.4 305.665 2.2V4.2ZM350.749 4.2C348.616 4.33333 347.049 4.6 346.049 5C345.116 5.4 344.482 6.16666 344.149 7.3C343.816 8.43333 343.649 10.2667 343.649 12.8V62.4C343.649 64.9333 343.816 66.7667 344.149 67.9C344.549 69.0333 345.216 69.8 346.149 70.2C347.082 70.6 348.616 70.8667 350.749 71V73C346.882 72.8 341.316 72.7 334.049 72.7C325.982 72.7 320.049 72.8 316.249 73V71C318.382 70.8667 319.916 70.6 320.849 70.2C321.849 69.8 322.516 69.0333 322.849 67.9C323.182 66.7667 323.349 64.9333 323.349 62.4V12.8C323.349 10.2667 323.149 8.43333 322.749 7.3C322.416 6.16666 321.782 5.4 320.849 5C319.916 4.6 318.382 4.33333 316.249 4.2V2.2C320.049 2.4 325.982 2.5 334.049 2.5C341.249 2.5 346.816 2.4 350.749 2.2V4.2ZM426.186 2.2C425.719 9.6 425.486 16.2 425.486 22C425.486 25.0667 425.586 27.4667 425.786 29.2H423.486C421.286 20.4667 418.452 14.1667 414.986 10.3C411.519 6.43333 407.786 4.49999 403.786 4.49999H403.686V61.7C403.686 64.5 403.952 66.5333 404.486 67.8C405.086 69.0667 406.119 69.9333 407.586 70.4C409.119 70.8 411.519 71 414.786 71V73C405.386 72.8 398.086 72.7 392.886 72.7C388.152 72.7 381.286 72.8 372.286 73V71C375.552 71 377.919 70.8 379.386 70.4C380.919 69.9333 381.952 69.0667 382.486 67.8C383.086 66.5333 383.386 64.5 383.386 61.7V4.49999H383.286C379.219 4.49999 375.452 6.43333 371.986 10.3C368.586 14.1 365.786 20.4 363.586 29.2H361.286C361.486 27.4667 361.586 25.0667 361.586 22C361.586 16.2 361.352 9.6 360.886 2.2C367.219 2.4 378.119 2.5 393.586 2.5C408.986 2.5 419.852 2.4 426.186 2.2ZM518.23 64.6C519.097 66.7333 520.03 68.3333 521.03 69.4C522.097 70.4 523.13 70.9333 524.13 71V73C519.33 72.8 513.264 72.7 505.93 72.7C498.33 72.7 492.73 72.8 489.13 73V71C491.664 70.8667 493.464 70.5667 494.53 70.1C495.597 69.5667 496.13 68.6667 496.13 67.4C496.13 66.2 495.73 64.6 494.93 62.6L489.03 46.2H468.83L467.13 50.7C464.93 56.3667 463.83 60.7 463.83 63.7C463.83 66.4333 464.597 68.3 466.13 69.3C467.664 70.3 469.93 70.8667 472.93 71V73C467.93 72.8 463.564 72.7 459.83 72.7C456.697 72.7 454.13 72.8 452.13 73V71C453.797 70.7333 455.364 69.7 456.83 67.9C458.297 66.1 459.797 63.2333 461.33 59.3L483.53 2.2C485.664 2.33333 487.43 2.4 488.83 2.4C490.164 2.4 491.897 2.33333 494.03 2.2L518.23 64.6ZM488.33 44.2L479.23 19.2L469.63 44.2H488.33ZM585.934 0.799994C589.734 0.799994 592.801 1.16666 595.134 1.9C597.534 2.56666 599.868 3.53333 602.134 4.8C602.868 5.19999 603.501 5.53333 604.034 5.79999C604.634 6.06666 605.134 6.2 605.534 6.2C606.134 6.2 606.601 5.86666 606.934 5.2C607.268 4.46666 607.534 3.33333 607.734 1.8H610.034C609.701 6.6 609.534 14.7333 609.534 26.2H607.234C606.968 22.4 606.101 18.7667 604.634 15.3C603.168 11.8333 601.168 9 598.634 6.79999C596.101 4.59999 593.168 3.49999 589.834 3.49999C586.768 3.49999 584.301 4.33333 582.434 6C580.568 7.6 579.634 9.86666 579.634 12.8C579.634 15.0667 580.134 17.0333 581.134 18.7C582.134 20.3667 583.601 22 585.534 23.6C587.468 25.1333 590.634 27.4333 595.034 30.5C595.434 30.7 595.801 30.9333 596.134 31.2C596.534 31.4667 596.901 31.7333 597.234 32C600.901 34.5333 603.834 36.8 606.034 38.8C608.234 40.7333 610.001 43 611.334 45.6C612.734 48.2 613.434 51.2 613.434 54.6C613.434 58.9333 612.201 62.6 609.734 65.6C607.334 68.5333 604.068 70.7333 599.934 72.2C595.801 73.6667 591.234 74.4 586.234 74.4C582.168 74.4 578.768 74.0667 576.034 73.4C573.368 72.7333 570.868 71.8333 568.534 70.7C567.068 69.7667 565.934 69.3 565.134 69.3C564.534 69.3 564.068 69.6667 563.734 70.4C563.401 71.0667 563.134 72.1667 562.934 73.7H560.634C560.901 69.1667 561.034 59.5 561.034 44.7H563.334C563.801 52.6333 565.468 59.0667 568.334 64C571.201 68.9333 575.601 71.4 581.534 71.4C585.201 71.4 588.101 70.5333 590.234 68.8C592.434 67.0667 593.534 64.6667 593.534 61.6C593.534 57.8 592.334 54.5667 589.934 51.9C587.601 49.1667 583.934 46.1333 578.934 42.8C574.934 40.1333 571.734 37.8 569.334 35.8C566.934 33.8 564.968 31.5 563.434 28.9C561.901 26.2333 561.134 23.1667 561.134 19.7C561.134 15.5 562.268 12 564.534 9.2C566.801 6.33333 569.801 4.23333 573.534 2.9C577.334 1.49999 581.468 0.799994 585.934 0.799994ZM689.662 2.2C689.196 9.6 688.962 16.2 688.962 22C688.962 25.0667 689.062 27.4667 689.262 29.2H686.962C684.762 20.4667 681.929 14.1667 678.462 10.3C674.996 6.43333 671.262 4.49999 667.262 4.49999H667.162V61.7C667.162 64.5 667.429 66.5333 667.962 67.8C668.562 69.0667 669.596 69.9333 671.062 70.4C672.596 70.8 674.996 71 678.262 71V73C668.862 72.8 661.562 72.7 656.362 72.7C651.629 72.7 644.762 72.8 635.762 73V71C639.029 71 641.396 70.8 642.862 70.4C644.396 69.9333 645.429 69.0667 645.962 67.8C646.562 66.5333 646.862 64.5 646.862 61.7V4.49999H646.762C642.696 4.49999 638.929 6.43333 635.462 10.3C632.062 14.1 629.262 20.4 627.062 29.2H624.762C624.962 27.4667 625.062 25.0667 625.062 22C625.062 16.2 624.829 9.6 624.362 2.2C630.696 2.4 641.596 2.5 657.062 2.5C672.462 2.5 683.329 2.4 689.662 2.2ZM738.384 0.799994C745.918 0.799994 752.518 2.23333 758.184 5.1C763.851 7.96666 768.251 12.1333 771.384 17.6C774.518 23 776.084 29.4667 776.084 37C776.084 44.3333 774.484 50.8333 771.284 56.5C768.084 62.1667 763.618 66.5667 757.884 69.7C752.151 72.8333 745.618 74.4 738.284 74.4C730.751 74.4 724.151 72.9667 718.484 70.1C712.818 67.2333 708.418 63.1 705.284 57.7C702.151 52.2333 700.584 45.7333 700.584 38.2C700.584 30.8667 702.184 24.3667 705.384 18.7C708.584 13.0333 713.051 8.63333 718.784 5.5C724.518 2.36666 731.051 0.799994 738.384 0.799994ZM737.984 2.59999C734.718 2.59999 731.818 4.09999 729.284 7.1C726.818 10.0333 724.918 14.1667 723.584 19.5C722.251 24.8333 721.584 30.9333 721.584 37.8C721.584 44.7333 722.351 50.8333 723.884 56.1C725.418 61.3667 727.484 65.4333 730.084 68.3C732.684 71.1667 735.551 72.6 738.684 72.6C741.951 72.6 744.818 71.1333 747.284 68.2C749.818 65.2 751.751 61.0333 753.084 55.7C754.418 50.3667 755.084 44.2667 755.084 37.4C755.084 30.4667 754.318 24.3667 752.784 19.1C751.251 13.8333 749.184 9.76666 746.584 6.9C743.984 4.03333 741.118 2.59999 737.984 2.59999ZM858.518 69C856.518 71 854.318 72.4 851.918 73.2C849.518 74 846.718 74.4 843.518 74.4C838.918 74.4 835.351 73.6 832.818 72C830.285 70.3333 828.718 67.5333 828.118 63.6L826.618 53.6C825.951 48.9333 825.018 45.4 823.818 43C822.685 40.6 820.951 39.4 818.618 39.4H814.118V62.4C814.118 64.9333 814.285 66.7667 814.618 67.9C815.018 69.0333 815.685 69.8 816.618 70.2C817.551 70.6 819.085 70.8667 821.218 71V73C817.351 72.8 811.785 72.7 804.518 72.7C796.451 72.7 790.518 72.8 786.718 73V71C788.851 70.8667 790.385 70.6 791.318 70.2C792.318 69.8 792.985 69.0333 793.318 67.9C793.651 66.7667 793.818 64.9333 793.818 62.4V12.8C793.818 10.2667 793.618 8.43333 793.218 7.3C792.885 6.16666 792.251 5.4 791.318 5C790.385 4.6 788.851 4.33333 786.718 4.2V2.2C790.518 2.4 796.251 2.5 803.918 2.5L815.418 2.4C816.751 2.33333 818.285 2.3 820.018 2.3C830.151 2.3 837.685 3.73333 842.618 6.6C847.618 9.46666 850.118 13.8333 850.118 19.7C850.118 24.7 848.251 28.9667 844.518 32.5C840.785 36.0333 834.518 38.2 825.718 39C832.518 39.4667 837.651 40.7667 841.118 42.9C844.585 44.9667 846.718 48.0333 847.518 52.1L849.618 62.5C850.085 64.9667 850.651 66.6667 851.318 67.6C851.985 68.5333 852.918 69 854.118 69C855.318 69 856.351 68.5667 857.218 67.7L858.518 69ZM819.518 4.2C817.985 4.2 816.818 4.43333 816.018 4.89999C815.285 5.36666 814.785 6.2 814.518 7.4C814.251 8.6 814.118 10.4 814.118 12.8V37.4H816.818C821.551 37.4 824.785 35.9667 826.518 33.1C828.251 30.1667 829.118 26.0667 829.118 20.8C829.118 15.3333 828.351 11.2 826.818 8.4C825.351 5.6 822.918 4.2 819.518 4.2ZM913.763 2.4C916.896 2.4 919.463 2.3 921.463 2.09999V4.1C918.063 5.76666 914.53 10.2 910.863 17.4L901.563 35.8V62.4C901.563 64.9333 901.73 66.7667 902.063 67.9C902.463 69.0333 903.13 69.8 904.063 70.2C904.996 70.6 906.53 70.8667 908.663 71V73C904.796 72.8 899.063 72.7 891.463 72.7C883.53 72.7 877.763 72.8 874.163 73V71C876.296 70.8667 877.83 70.6 878.763 70.2C879.763 69.8 880.43 69.0333 880.763 67.9C881.096 66.7667 881.263 64.9333 881.263 62.4V44L862.763 9.8C861.696 7.86666 860.663 6.46666 859.663 5.6C858.663 4.66666 857.763 4.2 856.963 4.2V2.09999C861.096 2.5 865.696 2.7 870.763 2.7C876.496 2.7 883.83 2.5 892.763 2.09999V4.2C890.096 4.2 888.096 4.33333 886.763 4.6C885.43 4.86667 884.763 5.5 884.763 6.5C884.763 6.96666 884.896 7.46666 885.163 8L899.463 35.4L903.963 26.4C907.096 20.1333 908.663 15.1667 908.663 11.5C908.663 6.76666 905.996 4.3 900.663 4.1V2.09999C905.663 2.3 910.03 2.4 913.763 2.4Z" fill="#8F6565"/>
</svg>
