<svg width="906" height="71" viewBox="0 0 906 71" fill="none" xmlns="http://www.w3.org/2000/svg">
<path d="M91.4338 2.2C89.3005 2.33333 87.7338 2.6 86.7338 3C85.8005 3.4 85.1672 4.16666 84.8338 5.3C84.5005 6.43333 84.3338 8.26666 84.3338 10.8V60.4C84.3338 62.9333 84.5005 64.7667 84.8338 65.9C85.2338 67.0333 85.9005 67.8 86.8338 68.2C87.7672 68.6 89.3005 68.8667 91.4338 69V71C87.3672 70.8 81.4672 70.7 73.7338 70.7C65.6672 70.7 59.7338 70.8 55.9338 71V69C58.3338 68.8667 60.0672 68.6 61.1338 68.2C62.2672 67.8 63.0338 67.0333 63.4338 65.9C63.8338 64.7667 64.0338 62.9333 64.0338 60.4V9.3L39.9338 70.9H38.3338L10.1338 6.7V51.4C10.1338 56.3333 10.3338 59.9 10.7338 62.1C11.1338 64.2333 12.0005 65.8 13.3338 66.8C14.7338 67.8 17.0338 68.5333 20.2338 69V71C17.5005 70.8 13.7672 70.7 9.03383 70.7C5.50049 70.7 2.73383 70.8 0.733826 71V69C2.80049 68.5333 4.33383 67.8333 5.33383 66.9C6.33383 65.9 7.00049 64.4 7.33383 62.4C7.66716 60.4 7.83383 57.4 7.83383 53.4V10.8C7.83383 8.26666 7.63383 6.43333 7.23383 5.3C6.90049 4.16666 6.26716 3.4 5.33383 3C4.40049 2.6 2.86716 2.33333 0.733826 2.2V0.2C2.73383 0.399997 5.50049 0.499996 9.03383 0.499996C17.0338 0.499996 23.9338 0.399997 29.7338 0.2L48.6338 42.7L65.0338 0.499996H73.7338C81.4672 0.499996 87.3672 0.399997 91.4338 0.2V2.2ZM159.218 54.2C159.218 61 159.452 66.6 159.918 71C155.385 70.8 147.752 70.7 137.018 70.7C121.418 70.7 109.752 70.8 102.018 71V69C104.152 68.8667 105.685 68.6 106.618 68.2C107.618 67.8 108.285 67.0333 108.618 65.9C108.952 64.7667 109.118 62.9333 109.118 60.4V10.8C109.118 8.26666 108.918 6.43333 108.518 5.3C108.185 4.16666 107.552 3.4 106.618 3C105.685 2.6 104.152 2.33333 102.018 2.2V0.2C109.752 0.399997 121.418 0.499996 137.018 0.499996C146.818 0.499996 153.785 0.399997 157.918 0.2C157.452 6.46667 157.218 12.0667 157.218 17C157.218 20.0667 157.318 22.4667 157.518 24.2H155.218C154.018 16.4667 151.785 10.9333 148.518 7.6C145.252 4.2 141.352 2.49999 136.818 2.49999H135.518C133.718 2.49999 132.385 2.66666 131.518 3C130.718 3.26666 130.152 3.83333 129.818 4.7C129.552 5.5 129.418 6.86666 129.418 8.8V34.4H130.418C133.885 34.4 136.852 33.0333 139.318 30.3C141.785 27.5667 143.352 24.5333 144.018 21.2H146.318C146.118 24 146.018 27.1333 146.018 30.6V35.4C146.018 38.8 146.218 43.5333 146.618 49.6H144.318C143.718 45.8 142.152 42.6667 139.618 40.2C137.152 37.6667 134.085 36.4 130.418 36.4H129.418V62.4C129.418 64.3333 129.552 65.7333 129.818 66.6C130.152 67.4 130.718 67.9667 131.518 68.3C132.385 68.5667 133.718 68.7 135.518 68.7H138.818C142.685 68.7 146.352 66.8333 149.818 63.1C153.285 59.3 155.752 53.2667 157.218 45H159.518C159.318 47.4 159.218 50.4667 159.218 54.2ZM229.257 54.2C229.257 61 229.491 66.6 229.957 71C225.424 70.8 217.791 70.7 207.057 70.7C191.457 70.7 179.791 70.8 172.057 71V69C174.191 68.8667 175.724 68.6 176.657 68.2C177.657 67.8 178.324 67.0333 178.657 65.9C178.991 64.7667 179.157 62.9333 179.157 60.4V10.8C179.157 8.26666 178.957 6.43333 178.557 5.3C178.224 4.16666 177.591 3.4 176.657 3C175.724 2.6 174.191 2.33333 172.057 2.2V0.2C179.791 0.399997 191.457 0.499996 207.057 0.499996C216.857 0.499996 223.824 0.399997 227.957 0.2C227.491 6.46667 227.257 12.0667 227.257 17C227.257 20.0667 227.357 22.4667 227.557 24.2H225.257C224.057 16.4667 221.824 10.9333 218.557 7.6C215.291 4.2 211.391 2.49999 206.857 2.49999H205.557C203.757 2.49999 202.424 2.66666 201.557 3C200.757 3.26666 200.191 3.83333 199.857 4.7C199.591 5.5 199.457 6.86666 199.457 8.8V34.4H200.457C203.924 34.4 206.891 33.0333 209.357 30.3C211.824 27.5667 213.391 24.5333 214.057 21.2H216.357C216.157 24 216.057 27.1333 216.057 30.6V35.4C216.057 38.8 216.257 43.5333 216.657 49.6H214.357C213.757 45.8 212.191 42.6667 209.657 40.2C207.191 37.6667 204.124 36.4 200.457 36.4H199.457V62.4C199.457 64.3333 199.591 65.7333 199.857 66.6C200.191 67.4 200.757 67.9667 201.557 68.3C202.424 68.5667 203.757 68.7 205.557 68.7H208.857C212.724 68.7 216.391 66.8333 219.857 63.1C223.324 59.3 225.791 53.2667 227.257 45H229.557C229.357 47.4 229.257 50.4667 229.257 54.2ZM306.896 0.2C306.43 7.6 306.196 14.2 306.196 20C306.196 23.0667 306.296 25.4667 306.496 27.2H304.196C301.996 18.4667 299.163 12.1667 295.696 8.3C292.23 4.43333 288.496 2.49999 284.496 2.49999H284.396V59.7C284.396 62.5 284.663 64.5333 285.196 65.8C285.796 67.0667 286.83 67.9333 288.296 68.4C289.83 68.8 292.23 69 295.496 69V71C286.096 70.8 278.796 70.7 273.596 70.7C268.863 70.7 261.996 70.8 252.996 71V69C256.263 69 258.63 68.8 260.096 68.4C261.63 67.9333 262.663 67.0667 263.196 65.8C263.796 64.5333 264.096 62.5 264.096 59.7V2.49999H263.996C259.93 2.49999 256.163 4.43333 252.696 8.3C249.296 12.1 246.496 18.4 244.296 27.2H241.996C242.196 25.4667 242.296 23.0667 242.296 20C242.296 14.2 242.063 7.6 241.596 0.2C247.93 0.399997 258.83 0.499996 274.296 0.499996C289.696 0.499996 300.563 0.399997 306.896 0.2ZM404.396 0.2C403.93 7.6 403.696 14.2 403.696 20C403.696 23.0667 403.796 25.4667 403.996 27.2H401.696C399.496 18.4667 396.663 12.1667 393.196 8.3C389.73 4.43333 385.996 2.49999 381.996 2.49999H381.896V59.7C381.896 62.5 382.163 64.5333 382.696 65.8C383.296 67.0667 384.33 67.9333 385.796 68.4C387.33 68.8 389.73 69 392.996 69V71C383.596 70.8 376.296 70.7 371.096 70.7C366.363 70.7 359.496 70.8 350.496 71V69C353.763 69 356.13 68.8 357.596 68.4C359.13 67.9333 360.163 67.0667 360.696 65.8C361.296 64.5333 361.596 62.5 361.596 59.7V2.49999H361.496C357.43 2.49999 353.663 4.43333 350.196 8.3C346.796 12.1 343.996 18.4 341.796 27.2H339.496C339.696 25.4667 339.796 23.0667 339.796 20C339.796 14.2 339.563 7.6 339.096 0.2C345.43 0.399997 356.33 0.499996 371.796 0.499996C387.196 0.499996 398.063 0.399997 404.396 0.2ZM491.818 2.2C489.685 2.33333 488.118 2.6 487.118 3C486.185 3.4 485.552 4.16666 485.218 5.3C484.885 6.43333 484.718 8.26666 484.718 10.8V60.4C484.718 62.9333 484.885 64.7667 485.218 65.9C485.618 67.0333 486.285 67.8 487.218 68.2C488.152 68.6 489.685 68.8667 491.818 69V71C488.218 70.8 482.618 70.7 475.018 70.7C467.352 70.7 461.452 70.8 457.318 71V69C459.452 68.8667 460.985 68.6 461.918 68.2C462.918 67.8 463.585 67.0333 463.918 65.9C464.252 64.7667 464.418 62.9333 464.418 60.4V36.4H441.918V60.4C441.918 62.9333 442.085 64.7667 442.418 65.9C442.818 67.0333 443.485 67.8 444.418 68.2C445.352 68.6 446.885 68.8667 449.018 69V71C445.152 70.8 439.585 70.7 432.318 70.7C424.252 70.7 418.318 70.8 414.518 71V69C416.652 68.8667 418.185 68.6 419.118 68.2C420.118 67.8 420.785 67.0333 421.118 65.9C421.452 64.7667 421.618 62.9333 421.618 60.4V10.8C421.618 8.26666 421.418 6.43333 421.018 5.3C420.685 4.16666 420.052 3.4 419.118 3C418.185 2.6 416.652 2.33333 414.518 2.2V0.2C418.318 0.399997 424.252 0.499996 432.318 0.499996C439.518 0.499996 445.085 0.399997 449.018 0.2V2.2C446.885 2.33333 445.318 2.6 444.318 3C443.385 3.4 442.752 4.16666 442.418 5.3C442.085 6.43333 441.918 8.26666 441.918 10.8V34.4H464.418V10.8C464.418 8.26666 464.218 6.43333 463.818 5.3C463.485 4.16666 462.852 3.4 461.918 3C460.985 2.6 459.452 2.33333 457.318 2.2V0.2C461.452 0.399997 467.352 0.499996 475.018 0.499996C482.618 0.499996 488.218 0.399997 491.818 0.2V2.2ZM559.628 54.2C559.628 61 559.862 66.6 560.328 71C555.795 70.8 548.162 70.7 537.428 70.7C521.828 70.7 510.162 70.8 502.428 71V69C504.562 68.8667 506.095 68.6 507.028 68.2C508.028 67.8 508.695 67.0333 509.028 65.9C509.362 64.7667 509.528 62.9333 509.528 60.4V10.8C509.528 8.26666 509.328 6.43333 508.928 5.3C508.595 4.16666 507.962 3.4 507.028 3C506.095 2.6 504.562 2.33333 502.428 2.2V0.2C510.162 0.399997 521.828 0.499996 537.428 0.499996C547.228 0.499996 554.195 0.399997 558.328 0.2C557.862 6.46667 557.628 12.0667 557.628 17C557.628 20.0667 557.728 22.4667 557.928 24.2H555.628C554.428 16.4667 552.195 10.9333 548.928 7.6C545.662 4.2 541.762 2.49999 537.228 2.49999H535.928C534.128 2.49999 532.795 2.66666 531.928 3C531.128 3.26666 530.562 3.83333 530.228 4.7C529.962 5.5 529.828 6.86666 529.828 8.8V34.4H530.828C534.295 34.4 537.262 33.0333 539.728 30.3C542.195 27.5667 543.762 24.5333 544.428 21.2H546.728C546.528 24 546.428 27.1333 546.428 30.6V35.4C546.428 38.8 546.628 43.5333 547.028 49.6H544.728C544.128 45.8 542.562 42.6667 540.028 40.2C537.562 37.6667 534.495 36.4 530.828 36.4H529.828V62.4C529.828 64.3333 529.962 65.7333 530.228 66.6C530.562 67.4 531.128 67.9667 531.928 68.3C532.795 68.5667 534.128 68.7 535.928 68.7H539.228C543.095 68.7 546.762 66.8333 550.228 63.1C553.695 59.3 556.162 53.2667 557.628 45H559.928C559.728 47.4 559.628 50.4667 559.628 54.2ZM662.189 0.2C661.723 7.6 661.489 14.2 661.489 20C661.489 23.0667 661.589 25.4667 661.789 27.2H659.489C657.289 18.4667 654.456 12.1667 650.989 8.3C647.523 4.43333 643.789 2.49999 639.789 2.49999H639.689V59.7C639.689 62.5 639.956 64.5333 640.489 65.8C641.089 67.0667 642.123 67.9333 643.589 68.4C645.123 68.8 647.523 69 650.789 69V71C641.389 70.8 634.089 70.7 628.889 70.7C624.156 70.7 617.289 70.8 608.289 71V69C611.556 69 613.923 68.8 615.389 68.4C616.923 67.9333 617.956 67.0667 618.489 65.8C619.089 64.5333 619.389 62.5 619.389 59.7V2.49999H619.289C615.223 2.49999 611.456 4.43333 607.989 8.3C604.589 12.1 601.789 18.4 599.589 27.2H597.289C597.489 25.4667 597.589 23.0667 597.589 20C597.589 14.2 597.356 7.6 596.889 0.2C603.223 0.399997 614.123 0.499996 629.589 0.499996C644.989 0.499996 655.856 0.399997 662.189 0.2ZM729.511 54.2C729.511 61 729.745 66.6 730.211 71C725.678 70.8 718.045 70.7 707.311 70.7C691.711 70.7 680.045 70.8 672.311 71V69C674.445 68.8667 675.978 68.6 676.911 68.2C677.911 67.8 678.578 67.0333 678.911 65.9C679.245 64.7667 679.411 62.9333 679.411 60.4V10.8C679.411 8.26666 679.211 6.43333 678.811 5.3C678.478 4.16666 677.845 3.4 676.911 3C675.978 2.6 674.445 2.33333 672.311 2.2V0.2C680.045 0.399997 691.711 0.499996 707.311 0.499996C717.111 0.499996 724.078 0.399997 728.211 0.2C727.745 6.46667 727.511 12.0667 727.511 17C727.511 20.0667 727.611 22.4667 727.811 24.2H725.511C724.311 16.4667 722.078 10.9333 718.811 7.6C715.545 4.2 711.645 2.49999 707.111 2.49999H705.811C704.011 2.49999 702.678 2.66666 701.811 3C701.011 3.26666 700.445 3.83333 700.111 4.7C699.845 5.5 699.711 6.86666 699.711 8.8V34.4H700.711C704.178 34.4 707.145 33.0333 709.611 30.3C712.078 27.5667 713.645 24.5333 714.311 21.2H716.611C716.411 24 716.311 27.1333 716.311 30.6V35.4C716.311 38.8 716.511 43.5333 716.911 49.6H714.611C714.011 45.8 712.445 42.6667 709.911 40.2C707.445 37.6667 704.378 36.4 700.711 36.4H699.711V62.4C699.711 64.3333 699.845 65.7333 700.111 66.6C700.445 67.4 701.011 67.9667 701.811 68.3C702.678 68.5667 704.011 68.7 705.811 68.7H709.111C712.978 68.7 716.645 66.8333 720.111 63.1C723.578 59.3 726.045 53.2667 727.511 45H729.811C729.611 47.4 729.511 50.4667 729.511 54.2ZM803.55 62.6C804.417 64.7333 805.35 66.3333 806.35 67.4C807.417 68.4 808.45 68.9333 809.45 69V71C804.65 70.8 798.584 70.7 791.25 70.7C783.65 70.7 778.05 70.8 774.45 71V69C776.984 68.8667 778.784 68.5667 779.85 68.1C780.917 67.5667 781.45 66.6667 781.45 65.4C781.45 64.2 781.05 62.6 780.25 60.6L774.35 44.2H754.15L752.45 48.7C750.25 54.3667 749.15 58.7 749.15 61.7C749.15 64.4333 749.917 66.3 751.45 67.3C752.984 68.3 755.25 68.8667 758.25 69V71C753.25 70.8 748.884 70.7 745.15 70.7C742.017 70.7 739.45 70.8 737.45 71V69C739.117 68.7333 740.684 67.7 742.15 65.9C743.617 64.1 745.117 61.2333 746.65 57.3L768.85 0.2C770.984 0.333331 772.75 0.399997 774.15 0.399997C775.484 0.399997 777.217 0.333331 779.35 0.2L803.55 62.6ZM773.65 42.2L764.55 17.2L754.95 42.2H773.65ZM905.535 2.2C903.402 2.33333 901.835 2.6 900.835 3C899.902 3.4 899.269 4.16666 898.935 5.3C898.602 6.43333 898.435 8.26666 898.435 10.8V60.4C898.435 62.9333 898.602 64.7667 898.935 65.9C899.335 67.0333 900.002 67.8 900.935 68.2C901.869 68.6 903.402 68.8667 905.535 69V71C901.469 70.8 895.569 70.7 887.835 70.7C879.769 70.7 873.835 70.8 870.035 71V69C872.435 68.8667 874.169 68.6 875.235 68.2C876.369 67.8 877.135 67.0333 877.535 65.9C877.935 64.7667 878.135 62.9333 878.135 60.4V9.3L854.035 70.9H852.435L824.235 6.7V51.4C824.235 56.3333 824.435 59.9 824.835 62.1C825.235 64.2333 826.102 65.8 827.435 66.8C828.835 67.8 831.135 68.5333 834.335 69V71C831.602 70.8 827.869 70.7 823.135 70.7C819.602 70.7 816.835 70.8 814.835 71V69C816.902 68.5333 818.435 67.8333 819.435 66.9C820.435 65.9 821.102 64.4 821.435 62.4C821.769 60.4 821.935 57.4 821.935 53.4V10.8C821.935 8.26666 821.735 6.43333 821.335 5.3C821.002 4.16666 820.369 3.4 819.435 3C818.502 2.6 816.969 2.33333 814.835 2.2V0.2C816.835 0.399997 819.602 0.499996 823.135 0.499996C831.135 0.499996 838.035 0.399997 843.835 0.2L862.735 42.7L879.135 0.499996H887.835C895.569 0.499996 901.469 0.399997 905.535 0.2V2.2Z" fill="#8F6565"/>
</svg>
